{
.appVersion = "1141";
DisplayStrings = (
p,
u,
v,
w,
y,
x,
z,
A,
B,
c,
e
);
customParameters = (
{
name = Axes;
value = (
{
Name = Weight;
Tag = wght;
}
);
}
);
date = "2018-08-04 23:04:41 +0000";
disablesNiceNames = 1;
familyName = "GNU Grotesk";
fontMaster = (
{
ascender = 768;
capHeight = 736;
customParameters = (
{
name = "Axis Location";
value = (
{
Axis = Weight;
Location = 400;
}
);
}
);
descender = -256;
id = "F6752803-E9E3-41A6-B92A-1FAB6ACE0E29";
weightValue = 400;
widthValue = 5;
xHeight = 528;
},
{
ascender = 768;
capHeight = 736;
custom = Black;
customParameters = (
{
name = "Axis Location";
value = (
{
Axis = Weight;
Location = 700;
}
);
}
);
descender = -256;
iconName = Bold;
id = "4E407420-3460-49BF-A41E-BF3B8360384D";
visible = 1;
weightValue = 700;
widthValue = 5;
xHeight = 528;
}
);
glyphs = (
{
color = 5;
glyphname = A;
lastChange = "2018-08-07 02:28:48 +0000";
layers = (
{
layerId = "F6752803-E9E3-41A6-B92A-1FAB6ACE0E29";
paths = (
{
closed = 1;
nodes = (
"16 0 LINE",
"121 0 LINE",
"197 217 LINE",
"490 217 LINE",
"564 0 LINE",
"676 0 LINE",
"400 736 LINE",
"290 736 LINE"
);
},
{
closed = 1;
nodes = (
"346 654 LINE",
"463 297 LINE",
"225 297 LINE"
);
}
);
width = 692;
},
{
layerId = "4E407420-3460-49BF-A41E-BF3B8360384D";
paths = (
{
closed = 1;
nodes = (
"12 0 LINE",
"182 0 LINE",
"228 142 LINE",
"500 142 LINE",
"544 0 LINE",
"726 0 LINE",
"458 737 LINE",
"281 736 LINE"
);
},
{
closed = 1;
nodes = (
"464 278 LINE",
"267 277 LINE",
"371 601 LINE"
);
}
);
width = 738;
},
{
associatedMasterId = "4E407420-3460-49BF-A41E-BF3B8360384D";
layerId = "54F52635-9AF4-430A-94B7-030D71B4756E";
name = "Aug 4 18, 19:10";
paths = (
{
closed = 0;
nodes = (
"541 -1 LINE",
"369 609 LINE",
"180 2 LINE"
);
}
);
visible = 1;
width = 736;
}
);
note = uni0041;
unicode = 0041;
},
{
color = 5;
glyphname = B;
lastChange = "2018-08-07 02:29:02 +0000";
layers = (
{
layerId = "F6752803-E9E3-41A6-B92A-1FAB6ACE0E29";
paths = (
{
closed = 1;
nodes = (
"412 0 LINE SMOOTH",
"532 0 OFFCURVE",
"655 119 OFFCURVE",
"655 214 QCURVE SMOOTH",
"655 291 OFFCURVE",
"573 385 OFFCURVE",
"499 393 QCURVE",
"499 396 LINE",
"559 413 OFFCURVE",
"625 491 OFFCURVE",
"625 552 QCURVE SMOOTH",
"625 593 OFFCURVE",
"528 744 OFFCURVE",
"397 744 QCURVE SMOOTH",
"77 744 LINE",
"77 0 LINE"
);
},
{
closed = 1;
nodes = (
"179 344 LINE",
"400 344 LINE SMOOTH",
"466 344 OFFCURVE",
"551 278 OFFCURVE",
"551 211 QCURVE SMOOTH",
"551 158 OFFCURVE",
"481 90 OFFCURVE",
"406 90 QCURVE SMOOTH",
"179 90 LINE"
);
},
{
closed = 1;
nodes = (
"179 656 LINE",
"395 656 LINE SMOOTH",
"455 656 OFFCURVE",
"522 598 OFFCURVE",
"522 545 QCURVE SMOOTH",
"522 488 OFFCURVE",
"449 427 OFFCURVE",
"383 427 QCURVE SMOOTH",
"179 427 LINE"
);
}
);
width = 691;
},
{
layerId = "4E407420-3460-49BF-A41E-BF3B8360384D";
paths = (
{
closed = 1;
nodes = (
"424 0 LINE SMOOTH",
"543 0 OFFCURVE",
"681 114 OFFCURVE",
"681 217 QCURVE SMOOTH",
"681 286 OFFCURVE",
"604 381 OFFCURVE",
"532 398 QCURVE",
"532 402 LINE",
"616 436 OFFCURVE",
"652 495 OFFCURVE",
"652 543 QCURVE SMOOTH",
"652 638 OFFCURVE",
"528 736 OFFCURVE",
"415 736 QCURVE SMOOTH",
"63 736 LINE",
"63 0 LINE"
);
},
{
closed = 1;
nodes = (
"233 326 LINE",
"403 326 LINE SMOOTH",
"452 326 OFFCURVE",
"512 276 OFFCURVE",
"512 229 QCURVE SMOOTH",
"512 186 OFFCURVE",
"456 134 OFFCURVE",
"406 134 QCURVE SMOOTH",
"233 134 LINE"
);
},
{
closed = 1;
nodes = (
"233 604 LINE",
"393 604 LINE SMOOTH",
"438 604 OFFCURVE",
"488 561 OFFCURVE",
"488 520 QCURVE SMOOTH",
"488 479 OFFCURVE",
"436 445 OFFCURVE",
"391 445 QCURVE SMOOTH",
"233 445 LINE"
);
}
);
width = 710;
}
);
note = uni0042;
unicode = 0042;
},
{
color = 5;
glyphname = C;
lastChange = "2018-08-05 15:07:59 +0000";
layers = (
{
layerId = "F6752803-E9E3-41A6-B92A-1FAB6ACE0E29";
paths = (
{
closed = 1;
nodes = (
"544 -15 OFFCURVE",
"712 173 OFFCURVE",
"712 271 QCURVE",
"610 271 LINE",
"607 171 OFFCURVE",
"502 74 OFFCURVE",
"401 74 QCURVE SMOOTH",
"315 74 OFFCURVE",
"153 195 OFFCURVE",
"153 372 QCURVE SMOOTH",
"153 506 OFFCURVE",
"271 671 OFFCURVE",
"400 671 QCURVE SMOOTH",
"486 671 OFFCURVE",
"589 618 OFFCURVE",
"602 519 QCURVE",
"704 519 LINE",
"696 613 OFFCURVE",
"548 760 OFFCURVE",
"402 760 QCURVE SMOOTH",
"229 760 OFFCURVE",
"49 524 OFFCURVE",
"49 372 QCURVE SMOOTH",
"49 138 OFFCURVE",
"279 -15 OFFCURVE",
"399 -15 QCURVE SMOOTH"
);
}
);
width = 756;
},
{
layerId = "4E407420-3460-49BF-A41E-BF3B8360384D";
paths = (
{
closed = 1;
nodes = (
"565 -17 OFFCURVE",
"719 124 OFFCURVE",
"723 260 QCURVE",
"552 260 LINE",
"546 202 OFFCURVE",
"466 124 OFFCURVE",
"397 124 QCURVE SMOOTH",
"303 124 OFFCURVE",
"206 236 OFFCURVE",
"206 369 QCURVE SMOOTH",
"206 512 OFFCURVE",
"348 615 OFFCURVE",
"396 615 QCURVE SMOOTH",
"479 615 OFFCURVE",
"538 546 OFFCURVE",
"546 493 QCURVE",
"716 493 LINE",
"709 596 OFFCURVE",
"548 758 OFFCURVE",
"397 757 QCURVE SMOOTH",
"179 756 OFFCURVE",
"32 502 OFFCURVE",
"32 369 QCURVE SMOOTH",
"32 176 OFFCURVE",
"236 -17 OFFCURVE",
"397 -17 QCURVE SMOOTH"
);
}
);
width = 749;
}
);
note = uni0043;
unicode = 0043;
},
{
color = 5;
glyphname = D;
lastChange = "2018-08-05 15:07:59 +0000";
layers = (
{
layerId = "F6752803-E9E3-41A6-B92A-1FAB6ACE0E29";
paths = (
{
closed = 1;
nodes = (
"345 0 LINE SMOOTH",
"519 0 OFFCURVE",
"684 216 OFFCURVE",
"684 369 QCURVE SMOOTH",
"684 543 OFFCURVE",
"515 744 OFFCURVE",
"352 744 QCURVE SMOOTH",
"77 744 LINE",
"77 0 LINE"
);
},
{
closed = 1;
nodes = (
"180 655 LINE",
"347 655 LINE SMOOTH",
"460 655 OFFCURVE",
"578 503 OFFCURVE",
"578 369 QCURVE SMOOTH",
"578 235 OFFCURVE",
"464 89 OFFCURVE",
"341 89 QCURVE SMOOTH",
"180 89 LINE"
);
}
);
width = 732;
},
{
layerId = "4E407420-3460-49BF-A41E-BF3B8360384D";
paths = (
{
closed = 1;
nodes = (
"365 0 LINE SMOOTH",
"530 0 OFFCURVE",
"718 194 OFFCURVE",
"718 367 QCURVE SMOOTH",
"718 502 OFFCURVE",
"553 744 OFFCURVE",
"375 744 QCURVE SMOOTH",
"65 744 LINE",
"65 0 LINE"
);
},
{
closed = 1;
nodes = (
"236 600 LINE",
"355 600 LINE SMOOTH",
"449 600 OFFCURVE",
"544 473 OFFCURVE",
"544 367 QCURVE SMOOTH",
"544 260 OFFCURVE",
"449 144 OFFCURVE",
"352 144 QCURVE SMOOTH",
"236 144 LINE"
);
}
);
width = 748;
},
{
associatedMasterId = "F6752803-E9E3-41A6-B92A-1FAB6ACE0E29";
layerId = "E19E28FB-F392-4449-BEDA-F0D541534F10";
name = "Aug 4 18, 23:34";
paths = (
{
closed = 1;
nodes = (
"77 0 LINE",
"345 0 LINE SMOOTH",
"429 0 OFFCURVE",
"555 53 OFFCURVE",
"641 150 OFFCURVE",
"684 286 OFFCURVE",
"684 369 QCURVE SMOOTH",
"684 453 OFFCURVE",
"643 591 OFFCURVE",
"560 690 OFFCURVE",
"435 744 OFFCURVE",
"352 744 QCURVE SMOOTH",
"77 744 LINE"
);
},
{
closed = 1;
nodes = (
"180 89 LINE",
"180 655 LINE",
"347 655 LINE SMOOTH",
"410 655 OFFCURVE",
"498 614 OFFCURVE",
"553 539 OFFCURVE",
"578 433 OFFCURVE",
"578 369 QCURVE SMOOTH",
"578 305 OFFCURVE",
"551 201 OFFCURVE",
"494 128 OFFCURVE",
"404 89 OFFCURVE",
"341 89 QCURVE SMOOTH"
);
}
);
visible = 1;
width = 732;
}
);
note = uni0044;
unicode = 0044;
},
{
color = 5;
glyphname = E;
lastChange = "2018-08-05 15:07:59 +0000";
layers = (
{
layerId = "F6752803-E9E3-41A6-B92A-1FAB6ACE0E29";
paths = (
{
closed = 1;
nodes = (
"617 0 LINE",
"617 93 LINE",
"179 93 LINE",
"179 344 LINE",
"565 344 LINE",
"565 429 LINE",
"179 429 LINE",
"179 644 LINE",
"606 644 LINE",
"606 734 LINE",
"77 734 LINE",
"77 0 LINE"
);
}
);
width = 666;
},
{
layerId = "4E407420-3460-49BF-A41E-BF3B8360384D";
paths = (
{
closed = 1;
nodes = (
"628 0 LINE",
"628 144 LINE",
"231 144 LINE",
"231 319 LINE",
"569 319 LINE",
"569 454 LINE",
"231 454 LINE",
"231 600 LINE",
"621 600 LINE",
"621 744 LINE",
"63 744 LINE",
"63 0 LINE"
);
}
);
width = 670;
}
);
note = uni0045;
unicode = 0045;
},
{
color = 5;
glyphname = F;
lastChange = "2018-08-05 15:07:59 +0000";
layers = (
{
layerId = "F6752803-E9E3-41A6-B92A-1FAB6ACE0E29";
paths = (
{
closed = 1;
nodes = (
"179 0 LINE",
"179 344 LINE",
"518 344 LINE",
"518 431 LINE",
"179 431 LINE",
"179 644 LINE",
"586 644 LINE",
"586 734 LINE",
"77 734 LINE",
"77 0 LINE"
);
}
);
width = 622;
},
{
layerId = "4E407420-3460-49BF-A41E-BF3B8360384D";
paths = (
{
closed = 1;
nodes = (
"234 0 LINE",
"234 298 LINE",
"540 298 LINE",
"540 437 LINE",
"234 437 LINE",
"234 591 LINE",
"610 591 LINE",
"610 736 LINE",
"64 736 LINE",
"64 0 LINE"
);
}
);
width = 641;
}
);
note = uni0046;
unicode = 0046;
},
{
color = 5;
glyphname = G;
lastChange = "2018-08-05 15:07:59 +0000";
layers = (
{
layerId = "F6752803-E9E3-41A6-B92A-1FAB6ACE0E29";
paths = (
{
closed = 1;
nodes = (
"471 -16 OFFCURVE",
"588 44 OFFCURVE",
"628 105 QCURVE",
"631 105 LINE",
"658 0 LINE",
"723 0 LINE",
"723 394 LINE",
"406 394 LINE",
"406 307 LINE",
"622 307 LINE",
"622 291 LINE SMOOTH",
"622 197 OFFCURVE",
"508 73 OFFCURVE",
"403 73 QCURVE SMOOTH",
"288 73 OFFCURVE",
"153 243 OFFCURVE",
"153 369 QCURVE SMOOTH",
"153 513 OFFCURVE",
"301 661 OFFCURVE",
"406 661 QCURVE SMOOTH",
"492 661 OFFCURVE",
"588 581 OFFCURVE",
"605 518 QCURVE",
"711 518 LINE",
"700 619 OFFCURVE",
"553 749 OFFCURVE",
"407 749 QCURVE SMOOTH",
"250 749 OFFCURVE",
"49 534 OFFCURVE",
"49 369 QCURVE SMOOTH",
"49 234 OFFCURVE",
"220 -16 OFFCURVE",
"398 -16 QCURVE SMOOTH"
);
}
);
width = 781;
},
{
layerId = "4E407420-3460-49BF-A41E-BF3B8360384D";
paths = (
{
closed = 1;
nodes = (
"465 -17 OFFCURVE",
"567 38 OFFCURVE",
"600 100 QCURVE",
"603 100 LINE",
"617 0 LINE",
"735 0 LINE",
"735 398 LINE",
"424 398 LINE",
"424 271 LINE",
"574 271 LINE",
"574 268 LINE SMOOTH",
"574 190 OFFCURVE",
"474 122 OFFCURVE",
"405 122 QCURVE SMOOTH",
"299 122 OFFCURVE",
"207 265 OFFCURVE",
"207 369 QCURVE SMOOTH",
"207 451 OFFCURVE",
"303 606 OFFCURVE",
"403 606 QCURVE SMOOTH",
"467 606 OFFCURVE",
"539 547 OFFCURVE",
"553 505 QCURVE",
"723 505 LINE",
"713 608 OFFCURVE",
"538 747 OFFCURVE",
"398 747 QCURVE SMOOTH",
"234 747 OFFCURVE",
"34 535 OFFCURVE",
"34 369 QCURVE SMOOTH",
"34 173 OFFCURVE",
"256 -17 OFFCURVE",
"386 -17 QCURVE SMOOTH"
);
}
);
width = 784;
},
{
associatedMasterId = "F6752803-E9E3-41A6-B92A-1FAB6ACE0E29";
layerId = "91DFF842-48D4-4832-AB06-8859CA3A8081";
name = "Aug 4 18, 23:44";
paths = (
{
closed = 1;
nodes = (
"658 0 LINE",
"723 0 LINE",
"723 394 LINE",
"406 394 LINE",
"406 307 LINE",
"622 307 LINE",
"622 291 LINE SMOOTH",
"622 247 OFFCURVE",
"595 168 OFFCURVE",
"541 108 OFFCURVE",
"458 73 OFFCURVE",
"403 73 QCURVE SMOOTH",
"348 73 OFFCURVE",
"256 116 OFFCURVE",
"190 194 OFFCURVE",
"153 303 OFFCURVE",
"153 369 QCURVE SMOOTH",
"153 433 OFFCURVE",
"183 544 OFFCURVE",
"245 625 OFFCURVE",
"341 671 OFFCURVE",
"406 671 QCURVE SMOOTH",
"492 671 OFFCURVE",
"588 591 OFFCURVE",
"605 528 QCURVE",
"711 528 LINE",
"700 579 OFFCURVE",
"652 664 OFFCURVE",
"576 725 OFFCURVE",
"473 759 OFFCURVE",
"407 759 QCURVE SMOOTH",
"320 759 OFFCURVE",
"189 701 OFFCURVE",
"144 650 QCURVE SMOOTH",
"97 597 OFFCURVE",
"49 454 OFFCURVE",
"49 369 QCURVE SMOOTH",
"49 284 OFFCURVE",
"99 143 OFFCURVE",
"146 92 QCURVE SMOOTH",
"192 41 OFFCURVE",
"320 -16 OFFCURVE",
"398 -16 QCURVE SMOOTH",
"471 -16 OFFCURVE",
"588 44 OFFCURVE",
"628 105 QCURVE",
"631 105 LINE"
);
}
);
visible = 1;
width = 781;
}
);
note = uni0047;
unicode = 0047;
},
{
color = 5;
glyphname = H;
lastChange = "2018-08-05 15:07:59 +0000";
layers = (
{
layerId = "F6752803-E9E3-41A6-B92A-1FAB6ACE0E29";
paths = (
{
closed = 1;
nodes = (
"77 0 LINE",
"179 0 LINE",
"179 348 LINE",
"563 348 LINE",
"563 0 LINE",
"666 0 LINE",
"666 736 LINE",
"563 736 LINE",
"563 431 LINE",
"179 431 LINE",
"179 736 LINE",
"77 736 LINE"
);
}
);
width = 743;
},
{
layerId = "4E407420-3460-49BF-A41E-BF3B8360384D";
paths = (
{
closed = 1;
nodes = (
"64 0 LINE",
"232 0 LINE",
"232 311 LINE",
"520 311 LINE",
"520 0 LINE",
"688 0 LINE",
"688 736 LINE",
"520 736 LINE",
"520 455 LINE",
"232 455 LINE",
"232 736 LINE",
"64 736 LINE"
);
}
);
width = 752;
}
);
note = uni0048;
unicode = 0048;
},
{
color = 5;
glyphname = I;
lastChange = "2018-08-05 15:07:59 +0000";
layers = (
{
layerId = "F6752803-E9E3-41A6-B92A-1FAB6ACE0E29";
paths = (
{
closed = 1;
nodes = (
"179 0 LINE",
"179 744 LINE",
"77 744 LINE",
"77 0 LINE"
);
}
);
width = 256;
},
{
layerId = "4E407420-3460-49BF-A41E-BF3B8360384D";
paths = (
{
closed = 1;
nodes = (
"232 0 LINE",
"232 736 LINE",
"64 736 LINE",
"64 0 LINE"
);
}
);
width = 296;
}
);
leftMetricsKey = "=H";
note = uni0049;
rightMetricsKey = "=H";
unicode = 0049;
},
{
color = 5;
glyphname = J;
lastChange = "2018-08-05 15:07:59 +0000";
layers = (
{
layerId = "F6752803-E9E3-41A6-B92A-1FAB6ACE0E29";
paths = (
{
closed = 1;
nodes = (
"360 -15 OFFCURVE",
"472 99 OFFCURVE",
"472 191 QCURVE SMOOTH",
"472 736 LINE",
"370 736 LINE",
"370 197 LINE SMOOTH",
"370 130 OFFCURVE",
"302 70 OFFCURVE",
"255 70 QCURVE SMOOTH",
"194 70 OFFCURVE",
"131 166 OFFCURVE",
"131 233 QCURVE SMOOTH",
"131 246 LINE",
"31 246 LINE",
"31 230 LINE SMOOTH",
"31 112 OFFCURVE",
"150 -15 OFFCURVE",
"254 -15 QCURVE SMOOTH"
);
}
);
width = 539;
},
{
layerId = "4E407420-3460-49BF-A41E-BF3B8360384D";
paths = (
{
closed = 1;
nodes = (
"388 -14 OFFCURVE",
"524 103 OFFCURVE",
"524 217 QCURVE SMOOTH",
"524 736 LINE",
"353 736 LINE",
"353 221 LINE SMOOTH",
"353 176 OFFCURVE",
"313 127 OFFCURVE",
"270 127 QCURVE SMOOTH",
"228 127 OFFCURVE",
"182 173 OFFCURVE",
"182 229 QCURVE SMOOTH",
"182 282 LINE",
"25 282 LINE",
"25 225 LINE SMOOTH",
"25 114 OFFCURVE",
"152 -14 OFFCURVE",
"280 -14 QCURVE SMOOTH"
);
}
);
width = 579;
}
);
note = uni004A;
unicode = 004A;
},
{
color = 5;
glyphname = K;
lastChange = "2018-08-05 15:07:59 +0000";
layers = (
{
layerId = "F6752803-E9E3-41A6-B92A-1FAB6ACE0E29";
paths = (
{
closed = 1;
nodes = (
"179 0 LINE",
"179 259 LINE",
"292 370 LINE",
"567 0 LINE",
"686 0 LINE",
"363 436 LINE",
"662 736 LINE",
"534 736 LINE",
"175 367 LINE",
"179 735 LINE",
"77 735 LINE",
"77 0 LINE"
);
}
);
width = 686;
},
{
layerId = "4E407420-3460-49BF-A41E-BF3B8360384D";
paths = (
{
closed = 1;
nodes = (
"233 0 LINE",
"233 256 LINE",
"301 327 LINE",
"528 0 LINE",
"727 0 LINE",
"422 435 LINE",
"709 736 LINE",
"505 736 LINE",
"227 436 LINE",
"233 736 LINE",
"63 736 LINE",
"63 0 LINE"
);
}
);
width = 736;
}
);
note = uni004B;
unicode = 004B;
},
{
color = 5;
glyphname = L;
lastChange = "2018-08-05 15:07:59 +0000";
layers = (
{
layerId = "F6752803-E9E3-41A6-B92A-1FAB6ACE0E29";
paths = (
{
closed = 1;
nodes = (
"564 0 LINE",
"564 93 LINE",
"179 93 LINE",
"179 736 LINE",
"77 736 LINE",
"77 0 LINE"
);
}
);
width = 595;
},
{
layerId = "4E407420-3460-49BF-A41E-BF3B8360384D";
paths = (
{
closed = 1;
nodes = (
"576 0 LINE",
"576 146 LINE",
"233 146 LINE",
"233 736 LINE",
"63 736 LINE",
"63 0 LINE"
);
}
);
width = 604;
}
);
note = uni004C;
unicode = 004C;
},
{
color = 5;
glyphname = M;
lastChange = "2018-08-05 15:15:03 +0000";
layers = (
{
layerId = "F6752803-E9E3-41A6-B92A-1FAB6ACE0E29";
paths = (
{
closed = 1;
nodes = (
"169 0 LINE",
"163 633 LINE",
"165 633 LINE",
"198 511 OFFCURVE",
"217 463 QCURVE SMOOTH",
"398 0 LINE",
"478 0 LINE",
"659 463 LINE SMOOTH",
"683 525 OFFCURVE",
"711 633 QCURVE",
"713 633 LINE",
"707 0 LINE",
"805 0 LINE",
"805 736 LINE",
"669 736 LINE",
"517 340 LINE SMOOTH",
"455 179 OFFCURVE",
"439 107 QCURVE",
"427 179 OFFCURVE",
"364 340 QCURVE SMOOTH",
"209 736 LINE",
"77 736 LINE",
"77 0 LINE"
);
}
);
width = 881;
},
{
layerId = "4E407420-3460-49BF-A41E-BF3B8360384D";
paths = (
{
closed = 1;
nodes = (
"216 0 LINE",
"204 593 LINE",
"206 593 LINE",
"249 396 OFFCURVE",
"264 354 QCURVE SMOOTH",
"371 0 LINE",
"511 0 LINE",
"617 354 LINE SMOOTH",
"627 379 OFFCURVE",
"675 593 QCURVE",
"677 593 LINE",
"665 0 LINE",
"822 0 LINE",
"822 736 LINE",
"590 736 LINE",
"499 434 LINE SMOOTH",
"466 325 OFFCURVE",
"441 169 QCURVE",
"396 399 OFFCURVE",
"385 434 QCURVE SMOOTH",
"292 736 LINE",
"63 736 LINE",
"63 0 LINE"
);
}
);
width = 884;
}
);
note = uni004D;
unicode = 004D;
},
{
color = 5;
glyphname = N;
lastChange = "2018-08-05 15:21:27 +0000";
layers = (
{
layerId = "F6752803-E9E3-41A6-B92A-1FAB6ACE0E29";
paths = (
{
closed = 1;
nodes = (
"173 0 LINE",
"173 448 LINE SMOOTH",
"173 511 OFFCURVE",
"169 605 QCURVE",
"210 525 OFFCURVE",
"254 458 QCURVE SMOOTH",
"558 0 LINE",
"664 0 LINE",
"664 736 LINE",
"568 736 LINE",
"568 289 LINE SMOOTH",
"568 213 OFFCURVE",
"572 130 QCURVE",
"534 210 OFFCURVE",
"489 278 QCURVE SMOOTH",
"184 736 LINE",
"77 736 LINE",
"77 0 LINE"
);
}
);
width = 741;
},
{
layerId = "4E407420-3460-49BF-A41E-BF3B8360384D";
paths = (
{
closed = 1;
nodes = (
"226 0 LINE",
"226 369 LINE SMOOTH",
"226 393 OFFCURVE",
"217 510 QCURVE",
"278 391 OFFCURVE",
"292 369 QCURVE SMOOTH",
"516 0 LINE",
"691 0 LINE",
"691 736 LINE",
"528 736 LINE",
"528 363 LINE SMOOTH",
"528 331 OFFCURVE",
"535 225 QCURVE",
"492 327 OFFCURVE",
"433 421 QCURVE SMOOTH",
"237 736 LINE",
"63 736 LINE",
"63 0 LINE"
);
}
);
width = 753;
}
);
note = uni004E;
unicode = 004E;
},
{
color = 5;
glyphname = O;
lastChange = "2018-08-05 15:18:47 +0000";
layers = (
{
layerId = "F6752803-E9E3-41A6-B92A-1FAB6ACE0E29";
paths = (
{
closed = 1;
nodes = (
"587 -16 OFFCURVE",
"778 199 OFFCURVE",
"778 362 QCURVE SMOOTH",
"778 526 OFFCURVE",
"587 750 OFFCURVE",
"413 750 QCURVE SMOOTH",
"249 750 OFFCURVE",
"49 526 OFFCURVE",
"49 362 QCURVE SMOOTH",
"49 199 OFFCURVE",
"249 -16 OFFCURVE",
"413 -16 QCURVE SMOOTH"
);
},
{
closed = 1;
nodes = (
"310 74 OFFCURVE",
"153 218 OFFCURVE",
"153 362 QCURVE SMOOTH",
"153 506 OFFCURVE",
"310 662 OFFCURVE",
"413 662 QCURVE SMOOTH",
"526 662 OFFCURVE",
"672 506 OFFCURVE",
"672 362 QCURVE SMOOTH",
"672 218 OFFCURVE",
"526 74 OFFCURVE",
"413 74 QCURVE SMOOTH"
);
}
);
width = 826;
},
{
layerId = "4E407420-3460-49BF-A41E-BF3B8360384D";
paths = (
{
closed = 1;
nodes = (
"554 -18 OFFCURVE",
"767 186 OFFCURVE",
"767 369 QCURVE SMOOTH",
"767 543 OFFCURVE",
"564 757 OFFCURVE",
"400 757 QCURVE SMOOTH",
"245 757 OFFCURVE",
"32 543 OFFCURVE",
"32 369 QCURVE SMOOTH",
"32 186 OFFCURVE",
"245 -18 OFFCURVE",
"400 -18 QCURVE SMOOTH"
);
},
{
closed = 1;
nodes = (
"303 122 OFFCURVE",
"206 266 OFFCURVE",
"206 369 QCURVE SMOOTH",
"206 472 OFFCURVE",
"303 619 OFFCURVE",
"401 619 QCURVE SMOOTH",
"499 619 OFFCURVE",
"593 472 OFFCURVE",
"593 369 QCURVE SMOOTH",
"593 266 OFFCURVE",
"499 122 OFFCURVE",
"401 122 QCURVE SMOOTH"
);
}
);
width = 799;
},
{
associatedMasterId = "F6752803-E9E3-41A6-B92A-1FAB6ACE0E29";
layerId = "9B85175D-3939-4768-9450-4FC5DAEFA74F";
name = "Aug 5 18, 11:15";
paths = (
{
closed = 1;
nodes = (
"497 -16 OFFCURVE",
"632 43 OFFCURVE",
"727 147 OFFCURVE",
"778 289 OFFCURVE",
"778 372 QCURVE SMOOTH",
"778 456 OFFCURVE",
"727 598 OFFCURVE",
"632 701 OFFCURVE",
"497 760 OFFCURVE",
"413 760 QCURVE SMOOTH",
"329 760 OFFCURVE",
"194 701 OFFCURVE",
"99 598 OFFCURVE",
"49 456 OFFCURVE",
"49 372 QCURVE SMOOTH",
"49 289 OFFCURVE",
"99 147 OFFCURVE",
"194 43 OFFCURVE",
"329 -16 OFFCURVE",
"413 -16 QCURVE SMOOTH"
);
},
{
closed = 1;
nodes = (
"350 74 OFFCURVE",
"253 119 OFFCURVE",
"187 199 OFFCURVE",
"153 308 OFFCURVE",
"153 372 QCURVE SMOOTH",
"153 436 OFFCURVE",
"187 546 OFFCURVE",
"253 626 OFFCURVE",
"350 672 OFFCURVE",
"413 672 QCURVE SMOOTH",
"476 672 OFFCURVE",
"573 626 OFFCURVE",
"639 546 OFFCURVE",
"672 436 OFFCURVE",
"672 372 QCURVE SMOOTH",
"672 308 OFFCURVE",
"639 199 OFFCURVE",
"573 119 OFFCURVE",
"476 74 OFFCURVE",
"413 74 QCURVE SMOOTH"
);
}
);
visible = 1;
width = 826;
}
);
note = uni004F;
unicode = 004F;
},
{
color = 5;
glyphname = P;
lastChange = "2018-08-05 15:35:25 +0000";
layers = (
{
layerId = "F6752803-E9E3-41A6-B92A-1FAB6ACE0E29";
paths = (
{
closed = 1;
nodes = (
"180 0 LINE",
"180 296 LINE",
"380 296 LINE SMOOTH",
"501 296 OFFCURVE",
"621 413 OFFCURVE",
"621 516 QCURVE SMOOTH",
"621 591 OFFCURVE",
"520 734 OFFCURVE",
"390 734 QCURVE SMOOTH",
"77 734 LINE",
"77 0 LINE"
);
},
{
closed = 1;
nodes = (
"180 645 LINE",
"374 645 LINE SMOOTH",
"443 645 OFFCURVE",
"519 579 OFFCURVE",
"519 513 QCURVE SMOOTH",
"519 450 OFFCURVE",
"446 379 OFFCURVE",
"370 379 QCURVE SMOOTH",
"180 379 LINE"
);
}
);
width = 647;
},
{
layerId = "4E407420-3460-49BF-A41E-BF3B8360384D";
paths = (
{
closed = 1;
nodes = (
"236 0 LINE",
"236 250 LINE",
"414 250 LINE SMOOTH",
"542 250 OFFCURVE",
"664 366 OFFCURVE",
"664 489 QCURVE SMOOTH",
"664 584 OFFCURVE",
"564 736 OFFCURVE",
"394 736 QCURVE SMOOTH",
"63 736 LINE",
"63 0 LINE"
);
},
{
closed = 1;
nodes = (
"236 591 LINE",
"382 591 LINE SMOOTH",
"435 591 OFFCURVE",
"492 548 OFFCURVE",
"492 489 QCURVE SMOOTH",
"492 431 OFFCURVE",
"435 385 OFFCURVE",
"381 385 QCURVE SMOOTH",
"236 385 LINE"
);
}
);
width = 686;
}
);
note = uni0050;
unicode = 0050;
},
{
color = 5;
glyphname = Q;
lastChange = "2018-08-05 15:41:26 +0000";
layers = (
{
layerId = "F6752803-E9E3-41A6-B92A-1FAB6ACE0E29";
paths = (
{
closed = 1;
nodes = (
"774 -4 LINE",
"667 82 LINE",
"777 213 OFFCURVE",
"777 372 QCURVE SMOOTH",
"777 536 OFFCURVE",
"577 750 OFFCURVE",
"413 750 QCURVE SMOOTH",
"249 750 OFFCURVE",
"49 536 OFFCURVE",
"49 372 QCURVE SMOOTH",
"49 189 OFFCURVE",
"259 -16 OFFCURVE",
"413 -16 QCURVE SMOOTH",
"507 -16 OFFCURVE",
"602 32 QCURVE",
"723 -66 LINE"
);
},
{
closed = 1;
nodes = (
"300 72 OFFCURVE",
"153 238 OFFCURVE",
"153 372 QCURVE SMOOTH",
"153 496 OFFCURVE",
"300 662 OFFCURVE",
"413 662 QCURVE SMOOTH",
"536 662 OFFCURVE",
"672 496 OFFCURVE",
"672 372 QCURVE SMOOTH",
"672 231 OFFCURVE",
"592 143 QCURVE",
"478 235 LINE",
"428 173 LINE",
"524 95 LINE",
"475 72 OFFCURVE",
"413 72 QCURVE SMOOTH"
);
}
);
width = 825;
},
{
layerId = "4E407420-3460-49BF-A41E-BF3B8360384D";
paths = (
{
closed = 1;
nodes = (
"766 17 LINE",
"674 101 LINE",
"765 218 OFFCURVE",
"765 369 QCURVE SMOOTH",
"765 536 OFFCURVE",
"564 750 OFFCURVE",
"399 750 QCURVE SMOOTH",
"224 750 OFFCURVE",
"32 516 OFFCURVE",
"32 369 QCURVE SMOOTH",
"32 186 OFFCURVE",
"254 -18 OFFCURVE",
"399 -18 QCURVE SMOOTH",
"484 -18 OFFCURVE",
"590 31 QCURVE",
"692 -63 LINE"
);
},
{
closed = 1;
nodes = (
"292 119 OFFCURVE",
"206 276 OFFCURVE",
"206 369 QCURVE SMOOTH",
"206 462 OFFCURVE",
"292 612 OFFCURVE",
"400 612 QCURVE SMOOTH",
"508 612 OFFCURVE",
"592 462 OFFCURVE",
"592 369 QCURVE SMOOTH",
"592 261 OFFCURVE",
"558 209 QCURVE",
"463 297 LINE",
"389 217 LINE",
"479 134 LINE",
"444 119 OFFCURVE",
"400 119 QCURVE SMOOTH"
);
}
);
width = 798;
}
);
note = uni0051;
unicode = 0051;
},
{
color = 5;
glyphname = R;
lastChange = "2018-08-05 16:11:41 +0000";
layers = (
{
layerId = "F6752803-E9E3-41A6-B92A-1FAB6ACE0E29";
paths = (
{
closed = 1;
nodes = (
"77 0 LINE",
"179 0 LINE",
"179 302 LINE",
"377 302 LINE SMOOTH",
"450 302 OFFCURVE",
"521 242 OFFCURVE",
"525 159 QCURVE SMOOTH",
"529 84 OFFCURVE",
"542 17 OFFCURVE",
"552 0 QCURVE",
"668 0 LINE",
"651 27 OFFCURVE",
"633 99 OFFCURVE",
"627 160 QCURVE SMOOTH",
"619 238 OFFCURVE",
"581 317 OFFCURVE",
"512 345 QCURVE",
"586 368 OFFCURVE",
"648 463 OFFCURVE",
"648 531 QCURVE SMOOTH",
"648 627 OFFCURVE",
"524 736 OFFCURVE",
"425 736 QCURVE SMOOTH",
"77 736 LINE"
);
},
{
closed = 1;
nodes = (
"179 648 LINE",
"397 648 LINE SMOOTH",
"476 648 OFFCURVE",
"543 582 OFFCURVE",
"543 516 QCURVE SMOOTH",
"543 455 OFFCURVE",
"468 384 OFFCURVE",
"392 384 QCURVE SMOOTH",
"179 384 LINE"
);
}
);
width = 700;
},
{
layerId = "4E407420-3460-49BF-A41E-BF3B8360384D";
paths = (
{
closed = 1;
nodes = (
"63 0 LINE",
"233 0 LINE",
"233 276 LINE",
"359 276 LINE SMOOTH",
"421 276 OFFCURVE",
"482 220 OFFCURVE",
"487 164 QCURVE SMOOTH",
"491 120 OFFCURVE",
"499 28 OFFCURVE",
"514 0 QCURVE",
"682 0 LINE",
"667 39 OFFCURVE",
"654 153 OFFCURVE",
"650 195 QCURVE SMOOTH",
"644 255 OFFCURVE",
"589 322 OFFCURVE",
"533 339 QCURVE",
"598 362 OFFCURVE",
"671 452 OFFCURVE",
"671 523 QCURVE SMOOTH",
"671 604 OFFCURVE",
"551 736 OFFCURVE",
"417 736 QCURVE SMOOTH",
"63 736 LINE"
);
},
{
closed = 1;
nodes = (
"233 601 LINE",
"389 601 LINE SMOOTH",
"446 601 OFFCURVE",
"501 546 OFFCURVE",
"501 500 QCURVE SMOOTH",
"501 455 OFFCURVE",
"441 402 OFFCURVE",
"384 402 QCURVE SMOOTH",
"233 402 LINE"
);
}
);
width = 715;
},
{
associatedMasterId = "4E407420-3460-49BF-A41E-BF3B8360384D";
layerId = "D53A4634-5E40-462E-B7D3-888CA3D52733";
name = "Aug 5 18, 11:41";
paths = (
{
closed = 1;
nodes = (
"63 0 LINE",
"233 0 LINE",
"233 284 LINE",
"359 284 LINE SMOOTH",
"421 284 OFFCURVE",
"480 228 OFFCURVE",
"487 172 QCURVE SMOOTH",
"490 141 OFFCURVE",
"494 83 OFFCURVE",
"499 36 OFFCURVE",
"506 4 OFFCURVE",
"514 0 QCURVE",
"682 0 LINE",
"682 8 LINE",
"673 12 OFFCURVE",
"665 45 OFFCURVE",
"660 98 OFFCURVE",
"655 165 OFFCURVE",
"650 203 QCURVE SMOOTH",
"642 263 OFFCURVE",
"589 330 OFFCURVE",
"533 347 QCURVE",
"533 350 LINE",
"605 373 OFFCURVE",
"671 465 OFFCURVE",
"671 531 QCURVE SMOOTH",
"671 582 OFFCURVE",
"632 661 OFFCURVE",
"564 716 OFFCURVE",
"471 744 OFFCURVE",
"417 744 QCURVE SMOOTH",
"63 744 LINE"
);
},
{
closed = 1;
nodes = (
"233 609 LINE",
"389 609 LINE SMOOTH",
"446 609 OFFCURVE",
"501 554 OFFCURVE",
"501 508 QCURVE SMOOTH",
"501 463 OFFCURVE",
"441 410 OFFCURVE",
"384 410 QCURVE SMOOTH",
"233 410 LINE"
);
}
);
visible = 1;
width = 715;
}
);
note = uni0052;
unicode = 0052;
},
{
color = 5;
glyphname = S;
lastChange = "2018-08-05 16:37:25 +0000";
layers = (
{
layerId = "F6752803-E9E3-41A6-B92A-1FAB6ACE0E29";
paths = (
{
closed = 1;
nodes = (
"470 -15 OFFCURVE",
"627 92 OFFCURVE",
"627 205 QCURVE SMOOTH",
"627 302 OFFCURVE",
"497 396 OFFCURVE",
"352 437 QCURVE SMOOTH",
"273 459 OFFCURVE",
"159 514 OFFCURVE",
"159 564 QCURVE SMOOTH",
"159 620 OFFCURVE",
"247 678 OFFCURVE",
"321 678 QCURVE SMOOTH",
"400 678 OFFCURVE",
"494 607 OFFCURVE",
"504 539 QCURVE",
"603 539 LINE",
"596 637 OFFCURVE",
"449 758 OFFCURVE",
"320 758 QCURVE SMOOTH",
"203 758 OFFCURVE",
"62 646 OFFCURVE",
"62 559 QCURVE SMOOTH",
"62 455 OFFCURVE",
"210 376 OFFCURVE",
"308 350 QCURVE SMOOTH",
"457 310 OFFCURVE",
"524 257 OFFCURVE",
"524 201 QCURVE SMOOTH",
"524 127 OFFCURVE",
"428 66 OFFCURVE",
"353 67 QCURVE SMOOTH",
"251 68 OFFCURVE",
"141 156 OFFCURVE",
"132 241 QCURVE",
"31 241 LINE",
"34 138 OFFCURVE",
"182 -15 OFFCURVE",
"350 -15 QCURVE SMOOTH"
);
}
);
width = 672;
},
{
layerId = "4E407420-3460-49BF-A41E-BF3B8360384D";
paths = (
{
closed = 1;
nodes = (
"469 -16 OFFCURVE",
"655 94 OFFCURVE",
"655 222 QCURVE SMOOTH",
"655 331 OFFCURVE",
"503 431 OFFCURVE",
"398 453 QCURVE SMOOTH",
"325 468 OFFCURVE",
"217 508 OFFCURVE",
"217 550 QCURVE SMOOTH",
"217 585 OFFCURVE",
"281 627 OFFCURVE",
"334 627 QCURVE SMOOTH",
"390 627 OFFCURVE",
"456 579 OFFCURVE",
"463 535 QCURVE",
"630 535 LINE",
"626 640 OFFCURVE",
"470 756 OFFCURVE",
"339 756 QCURVE SMOOTH",
"187 756 OFFCURVE",
"49 631 OFFCURVE",
"49 533 QCURVE SMOOTH",
"49 445 OFFCURVE",
"159 341 OFFCURVE",
"312 309 QCURVE SMOOTH",
"437 283 OFFCURVE",
"483 238 OFFCURVE",
"483 205 QCURVE SMOOTH",
"483 162 OFFCURVE",
"414 118 OFFCURVE",
"355 118 QCURVE SMOOTH",
"283 118 OFFCURVE",
"204 174 OFFCURVE",
"197 235 QCURVE",
"25 235 LINE",
"27 115 OFFCURVE",
"200 -16 OFFCURVE",
"355 -16 QCURVE SMOOTH"
);
}
);
width = 690;
},
{
associatedMasterId = "4E407420-3460-49BF-A41E-BF3B8360384D";
layerId = "AF0BD0CF-E3FA-4420-8E9C-05686894DEEB";
name = "Aug 5 18, 12:11";
paths = (
{
closed = 1;
nodes = (
"419 -18 OFFCURVE",
"528 14 OFFCURVE",
"609 75 OFFCURVE",
"655 164 OFFCURVE",
"655 222 QCURVE SMOOTH",
"655 281 OFFCURVE",
"612 359 OFFCURVE",
"541 411 OFFCURVE",
"448 442 OFFCURVE",
"398 453 QCURVE SMOOTH",
"354 463 OFFCURVE",
"287 479 OFFCURVE",
"241 500 OFFCURVE",
"217 528 OFFCURVE",
"217 550 QCURVE SMOOTH",
"217 585 OFFCURVE",
"281 627 OFFCURVE",
"334 627 QCURVE SMOOTH",
"390 627 OFFCURVE",
"456 579 OFFCURVE",
"463 535 QCURVE",
"630 535 LINE",
"626 590 OFFCURVE",
"580 673 OFFCURVE",
"504 729 OFFCURVE",
"400 757 OFFCURVE",
"339 757 QCURVE SMOOTH",
"277 757 OFFCURVE",
"171 730 OFFCURVE",
"93 675 OFFCURVE",
"49 591 OFFCURVE",
"49 533 QCURVE SMOOTH",
"49 475 OFFCURVE",
"90 400 OFFCURVE",
"162 351 OFFCURVE",
"258 321 OFFCURVE",
"312 309 QCURVE SMOOTH",
"352 300 OFFCURVE",
"416 283 OFFCURVE",
"460 261 OFFCURVE",
"483 229 OFFCURVE",
"483 205 QCURVE SMOOTH",
"483 182 OFFCURVE",
"462 149 OFFCURVE",
"426 128 OFFCURVE",
"380 118 OFFCURVE",
"355 118 QCURVE SMOOTH",
"283 118 OFFCURVE",
"204 174 OFFCURVE",
"197 235 QCURVE",
"25 235 LINE",
"27 175 OFFCURVE",
"74 80 OFFCURVE",
"160 16 OFFCURVE",
"280 -18 OFFCURVE",
"355 -18 QCURVE SMOOTH"
);
}
);
visible = 1;
width = 690;
}
);
note = uni0053;
unicode = 0053;
},
{
color = 5;
glyphname = T;
lastChange = "2018-08-05 16:37:25 +0000";
layers = (
{
layerId = "F6752803-E9E3-41A6-B92A-1FAB6ACE0E29";
paths = (
{
closed = 1;
nodes = (
"31 654 LINE",
"275 654 LINE",
"275 0 LINE",
"378 0 LINE",
"378 654 LINE",
"623 654 LINE",
"623 744 LINE",
"31 744 LINE"
);
}
);
width = 654;
},
{
layerId = "4E407420-3460-49BF-A41E-BF3B8360384D";
paths = (
{
closed = 1;
nodes = (
"27 599 LINE",
"248 599 LINE",
"248 0 LINE",
"419 0 LINE",
"419 599 LINE",
"641 599 LINE",
"641 744 LINE",
"27 744 LINE"
);
}
);
width = 668;
}
);
note = uni0054;
unicode = 0054;
},
{
color = 5;
glyphname = U;
lastChange = "2018-08-05 16:45:03 +0000";
layers = (
{
layerId = "F6752803-E9E3-41A6-B92A-1FAB6ACE0E29";
paths = (
{
closed = 1;
nodes = (
"483 -11 OFFCURVE",
"639 125 OFFCURVE",
"639 242 QCURVE SMOOTH",
"639 736 LINE",
"537 736 LINE",
"537 251 LINE SMOOTH",
"537 159 OFFCURVE",
"441 76 OFFCURVE",
"354 76 QCURVE SMOOTH",
"264 76 OFFCURVE",
"167 159 OFFCURVE",
"167 251 QCURVE SMOOTH",
"167 736 LINE",
"65 736 LINE",
"65 242 LINE SMOOTH",
"65 125 OFFCURVE",
"219 -11 OFFCURVE",
"352 -11 QCURVE SMOOTH"
);
}
);
width = 704;
},
{
layerId = "4E407420-3460-49BF-A41E-BF3B8360384D";
paths = (
{
closed = 1;
nodes = (
"514 -14 OFFCURVE",
"670 128 OFFCURVE",
"670 259 QCURVE SMOOTH",
"670 736 LINE",
"499 736 LINE",
"499 258 LINE SMOOTH",
"499 197 OFFCURVE",
"431 124 OFFCURVE",
"364 124 QCURVE SMOOTH",
"292 124 OFFCURVE",
"225 194 OFFCURVE",
"225 255 QCURVE SMOOTH",
"225 736 LINE",
"55 736 LINE",
"55 259 LINE SMOOTH",
"55 127 OFFCURVE",
"212 -14 OFFCURVE",
"364 -14 QCURVE SMOOTH"
);
}
);
width = 724;
}
);
note = uni0055;
unicode = 0055;
},
{
color = 5;
glyphname = V;
lastChange = "2018-08-05 16:46:21 +0000";
layers = (
{
layerId = "F6752803-E9E3-41A6-B92A-1FAB6ACE0E29";
paths = (
{
closed = 1;
nodes = (
"387 0 LINE",
"647 736 LINE",
"541 736 LINE",
"380 248 LINE SMOOTH",
"374 229 OFFCURVE",
"336 90 QCURVE",
"299 229 OFFCURVE",
"291 248 QCURVE SMOOTH",
"128 736 LINE",
"18 736 LINE",
"275 0 LINE"
);
}
);
width = 664;
},
{
layerId = "4E407420-3460-49BF-A41E-BF3B8360384D";
paths = (
{
closed = 1;
nodes = (
"434 0 LINE",
"680 736 LINE",
"508 736 LINE",
"399 386 LINE SMOOTH",
"389 355 OFFCURVE",
"348 167 QCURVE",
"313 333 OFFCURVE",
"296 386 QCURVE SMOOTH",
"186 736 LINE",
"9 736 LINE",
"255 0 LINE"
);
}
);
width = 690;
}
);
note = uni0056;
unicode = 0056;
},
{
color = 5;
glyphname = W;
lastChange = "2018-08-05 16:50:27 +0000";
layers = (
{
layerId = "F6752803-E9E3-41A6-B92A-1FAB6ACE0E29";
paths = (
{
closed = 1;
nodes = (
"314 0 LINE",
"445 477 LINE",
"451 501 OFFCURVE",
"482 661 QCURVE",
"511 501 OFFCURVE",
"518 476 QCURVE",
"640 0 LINE",
"739 0 LINE",
"946 736 LINE",
"841 736 LINE",
"730 306 LINE",
"723 278 OFFCURVE",
"691 109 QCURVE",
"660 279 OFFCURVE",
"652 307 QCURVE",
"536 736 LINE",
"428 736 LINE",
"308 307 LINE",
"300 279 OFFCURVE",
"267 109 QCURVE",
"239 278 OFFCURVE",
"232 306 QCURVE",
"125 736 LINE",
"18 736 LINE",
"212 0 LINE"
);
}
);
width = 965;
},
{
layerId = "4E407420-3460-49BF-A41E-BF3B8360384D";
paths = (
{
closed = 1;
nodes = (
"379 0 LINE",
"452 312 LINE",
"462 373 OFFCURVE",
"493 569 QCURVE",
"524 373 OFFCURVE",
"537 308 QCURVE",
"608 0 LINE",
"775 0 LINE",
"979 736 LINE",
"806 736 LINE",
"737 454 LINE",
"727 414 OFFCURVE",
"688 169 QCURVE",
"649 421 OFFCURVE",
"640 460 QCURVE",
"574 736 LINE",
"413 736 LINE",
"347 459 LINE",
"338 420 OFFCURVE",
"296 169 QCURVE",
"263 412 OFFCURVE",
"253 453 QCURVE",
"182 736 LINE",
"9 736 LINE",
"211 0 LINE"
);
}
);
width = 999;
}
);
note = uni0057;
unicode = 0057;
},
{
color = 5;
glyphname = X;
lastChange = "2018-08-05 16:52:03 +0000";
layers = (
{
layerId = "F6752803-E9E3-41A6-B92A-1FAB6ACE0E29";
paths = (
{
closed = 1;
nodes = (
"23 0 LINE",
"139 0 LINE",
"261 194 LINE SMOOTH",
"303 257 OFFCURVE",
"336 315 QCURVE",
"362 260 OFFCURVE",
"404 194 QCURVE SMOOTH",
"522 0 LINE",
"644 0 LINE",
"394 373 LINE",
"635 736 LINE",
"523 736 LINE",
"411 557 LINE SMOOTH",
"374 498 OFFCURVE",
"341 435 QCURVE",
"309 496 OFFCURVE",
"271 557 QCURVE SMOOTH",
"160 736 LINE",
"42 736 LINE",
"279 374 LINE"
);
}
);
width = 667;
},
{
layerId = "4E407420-3460-49BF-A41E-BF3B8360384D";
paths = (
{
closed = 1;
nodes = (
"15 0 LINE",
"209 0 LINE",
"286 131 LINE SMOOTH",
"333 211 OFFCURVE",
"364 283 QCURVE",
"395 204 OFFCURVE",
"437 131 QCURVE SMOOTH",
"512 0 LINE",
"714 0 LINE",
"466 382 LINE",
"691 736 LINE",
"505 736 LINE",
"444 635 LINE SMOOTH",
"396 556 OFFCURVE",
"366 485 QCURVE",
"333 565 OFFCURVE",
"291 635 QCURVE SMOOTH",
"231 736 LINE",
"36 736 LINE",
"265 381 LINE"
);
}
);
width = 730;
}
);
note = uni0058;
unicode = 0058;
},
{
color = 5;
glyphname = Y;
lastChange = "2018-08-05 16:52:40 +0000";
layers = (
{
layerId = "F6752803-E9E3-41A6-B92A-1FAB6ACE0E29";
paths = (
{
closed = 1;
nodes = (
"388 0 LINE",
"388 299 LINE",
"659 736 LINE",
"550 736 LINE",
"415 512 LINE SMOOTH",
"403 492 OFFCURVE",
"339 373 QCURVE",
"291 470 OFFCURVE",
"266 512 QCURVE SMOOTH",
"132 736 LINE",
"18 736 LINE",
"286 304 LINE",
"286 0 LINE"
);
}
);
width = 678;
},
{
layerId = "4E407420-3460-49BF-A41E-BF3B8360384D";
paths = (
{
closed = 1;
nodes = (
"436 0 LINE",
"436 272 LINE",
"691 736 LINE",
"511 736 LINE",
"430 580 LINE SMOOTH",
"417 554 OFFCURVE",
"354 403 QCURVE",
"291 554 OFFCURVE",
"278 580 QCURVE SMOOTH",
"198 736 LINE",
"11 736 LINE",
"266 270 LINE",
"266 0 LINE"
);
}
);
width = 702;
}
);
note = uni0059;
unicode = 0059;
},
{
color = 5;
glyphname = Z;
lastChange = "2018-08-05 16:55:23 +0000";
layers = (
{
layerId = "F6752803-E9E3-41A6-B92A-1FAB6ACE0E29";
paths = (
{
closed = 1;
nodes = (
"622 0 LINE",
"622 91 LINE",
"288 91 LINE SMOOTH",
"224 91 OFFCURVE",
"149 87 QCURVE",
"225 174 OFFCURVE",
"274 236 QCURVE SMOOTH",
"605 656 LINE",
"605 736 LINE",
"66 736 LINE",
"66 649 LINE",
"358 649 LINE SMOOTH",
"377 649 OFFCURVE",
"491 653 QCURVE",
"414 565 OFFCURVE",
"402 550 QCURVE SMOOTH",
"39 95 LINE",
"39 0 LINE"
);
}
);
width = 668;
},
{
layerId = "4E407420-3460-49BF-A41E-BF3B8360384D";
paths = (
{
closed = 1;
nodes = (
"649 0 LINE",
"649 146 LINE",
"401 146 LINE SMOOTH",
"378 146 OFFCURVE",
"235 143 QCURVE",
"343 254 OFFCURVE",
"370 286 QCURVE SMOOTH",
"635 602 LINE",
"635 736 LINE",
"63 736 LINE",
"63 592 LINE",
"277 592 LINE SMOOTH",
"299 592 OFFCURVE",
"434 597 QCURVE",
"328 484 OFFCURVE",
"311 464 QCURVE SMOOTH",
"36 138 LINE",
"36 0 LINE"
);
}
);
width = 688;
}
);
note = uni005A;
unicode = 005A;
},
{
color = 5;
glyphname = a;
lastChange = "2018-08-05 17:06:47 +0000";
layers = (
{
layerId = "F6752803-E9E3-41A6-B92A-1FAB6ACE0E29";
paths = (
{
closed = 1;
nodes = (
"288 -11 OFFCURVE",
"381 41 OFFCURVE",
"404 79 QCURVE",
"413 36 OFFCURVE",
"457 -5 OFFCURVE",
"500 -5 QCURVE",
"550 3 LINE",
"550 68 LINE",
"489 51 OFFCURVE",
"489 124 QCURVE SMOOTH",
"489 375 LINE SMOOTH",
"489 449 OFFCURVE",
"395 550 OFFCURVE",
"287 550 QCURVE SMOOTH",
"173 550 OFFCURVE",
"70 442 OFFCURVE",
"69 378 QCURVE",
"159 378 LINE",
"161 426 OFFCURVE",
"224 482 OFFCURVE",
"288 482 QCURVE SMOOTH",
"344 482 OFFCURVE",
"403 432 OFFCURVE",
"403 388 QCURVE SMOOTH",
"403 347 OFFCURVE",
"344 323 OFFCURVE",
"273 311 QCURVE SMOOTH",
"172 294 OFFCURVE",
"42 229 OFFCURVE",
"42 142 QCURVE SMOOTH",
"42 53 OFFCURVE",
"156 -11 OFFCURVE",
"224 -11 QCURVE SMOOTH"
);
},
{
closed = 1;
nodes = (
"187 57 OFFCURVE",
"140 97 OFFCURVE",
"140 143 QCURVE SMOOTH",
"140 201 OFFCURVE",
"253 242 OFFCURVE",
"286 248 QCURVE SMOOTH",
"319 254 OFFCURVE",
"384 273 OFFCURVE",
"404 286 QCURVE",
"404 198 LINE SMOOTH",
"404 145 OFFCURVE",
"327 57 OFFCURVE",
"247 57 QCURVE SMOOTH"
);
}
);
width = 562;
},
{
layerId = "4E407420-3460-49BF-A41E-BF3B8360384D";
paths = (
{
closed = 1;
nodes = (
"274 -14 OFFCURVE",
"347 28 OFFCURVE",
"373 65 QCURVE",
"376 50 OFFCURVE",
"387 9 OFFCURVE",
"393 0 QCURVE",
"546 0 LINE",
"546 9 LINE",
"526 22 OFFCURVE",
"526 83 QCURVE SMOOTH",
"526 356 LINE SMOOTH",
"526 460 OFFCURVE",
"403 547 OFFCURVE",
"292 547 QCURVE SMOOTH",
"193 547 OFFCURVE",
"57 456 OFFCURVE",
"56 371 QCURVE",
"201 371 LINE",
"204 403 OFFCURVE",
"249 441 OFFCURVE",
"294 441 QCURVE SMOOTH",
"335 441 OFFCURVE",
"373 406 OFFCURVE",
"373 377 QCURVE SMOOTH",
"373 347 OFFCURVE",
"309 319 OFFCURVE",
"239 309 QCURVE SMOOTH",
"135 294 OFFCURVE",
"30 222 OFFCURVE",
"30 147 QCURVE SMOOTH",
"30 68 OFFCURVE",
"133 -14 OFFCURVE",
"212 -14 QCURVE SMOOTH"
);
},
{
closed = 1;
nodes = (
"229 89 OFFCURVE",
"183 117 OFFCURVE",
"183 152 QCURVE SMOOTH",
"183 187 OFFCURVE",
"233 219 OFFCURVE",
"285 230 QCURVE SMOOTH",
"311 236 OFFCURVE",
"360 249 OFFCURVE",
"377 260 QCURVE",
"377 191 LINE SMOOTH",
"377 147 OFFCURVE",
"314 89 OFFCURVE",
"261 89 QCURVE SMOOTH"
);
}
);
width = 580;
}
);
note = uni0061;
unicode = 0061;
},
{
color = 5;
glyphname = b;
lastChange = "2018-08-05 20:45:09 +0000";
layers = (
{
layerId = "F6752803-E9E3-41A6-B92A-1FAB6ACE0E29";
paths = (
{
closed = 1;
nodes = (
"444 -16 OFFCURVE",
"562 142 OFFCURVE",
"562 267 QCURVE SMOOTH",
"562 403 OFFCURVE",
"434 550 OFFCURVE",
"333 550 QCURVE SMOOTH",
"274 550 OFFCURVE",
"186 495 OFFCURVE",
"160 452 QCURVE",
"157 452 LINE",
"158 469 OFFCURVE",
"160 554 QCURVE SMOOTH",
"160 736 LINE",
"64 736 LINE",
"64 0 LINE",
"159 0 LINE",
"159 76 LINE",
"162 76 LINE",
"188 31 OFFCURVE",
"276 -16 OFFCURVE",
"330 -16 QCURVE SMOOTH"
);
},
{
closed = 1;
nodes = (
"249 61 OFFCURVE",
"155 162 OFFCURVE",
"155 266 QCURVE SMOOTH",
"155 349 OFFCURVE",
"238 472 OFFCURVE",
"321 472 QCURVE SMOOTH",
"398 472 OFFCURVE",
"467 340 OFFCURVE",
"467 266 QCURVE SMOOTH",
"467 182 OFFCURVE",
"397 61 OFFCURVE",
"320 61 QCURVE SMOOTH"
);
}
);
width = 594;
},
{
layerId = "4E407420-3460-49BF-A41E-BF3B8360384D";
paths = (
{
closed = 1;
nodes = (
"469 -17 OFFCURVE",
"595 130 OFFCURVE",
"595 266 QCURVE SMOOTH",
"595 397 OFFCURVE",
"460 547 OFFCURVE",
"366 547 QCURVE SMOOTH",
"310 547 OFFCURVE",
"234 499 OFFCURVE",
"207 458 QCURVE",
"204 458 LINE",
"209 522 OFFCURVE",
"209 581 QCURVE SMOOTH",
"209 736 LINE",
"52 736 LINE",
"52 0 LINE",
"203 0 LINE",
"203 78 LINE",
"205 78 LINE",
"228 29 OFFCURVE",
"313 -17 OFFCURVE",
"367 -17 QCURVE SMOOTH"
);
},
{
closed = 1;
nodes = (
"268 109 OFFCURVE",
"204 196 OFFCURVE",
"204 266 QCURVE SMOOTH",
"204 340 OFFCURVE",
"263 428 OFFCURVE",
"324 428 QCURVE SMOOTH",
"380 428 OFFCURVE",
"435 339 OFFCURVE",
"435 267 QCURVE SMOOTH",
"435 195 OFFCURVE",
"380 109 OFFCURVE",
"325 109 QCURVE SMOOTH"
);
}
);
width = 621;
},
{
associatedMasterId = "F6752803-E9E3-41A6-B92A-1FAB6ACE0E29";
layerId = "5C674032-A5E5-4568-878C-D6985943BB7A";
name = "Aug 5 18, 16:41";
paths = (
{
closed = 1;
nodes = (
"381 -16 OFFCURVE",
"467 24 OFFCURVE",
"527 97 OFFCURVE",
"559 202 OFFCURVE",
"559 267 QCURVE SMOOTH",
"559 333 OFFCURVE",
"526 438 OFFCURVE",
"465 511 OFFCURVE",
"381 550 OFFCURVE",
"330 550 QCURVE SMOOTH",
"271 550 OFFCURVE",
"183 495 OFFCURVE",
"157 452 QCURVE",
"154 452 LINE",
"155 469 OFFCURVE",
"157 523 OFFCURVE",
"157 554 QCURVE SMOOTH",
"157 736 LINE",
"64 736 LINE",
"64 0 LINE",
"156 0 LINE",
"156 76 LINE",
"159 76 LINE",
"185 31 OFFCURVE",
"273 -16 OFFCURVE",
"327 -16 QCURVE SMOOTH"
);
},
{
closed = 1;
nodes = (
"276 61 OFFCURVE",
"214 92 OFFCURVE",
"173 147 OFFCURVE",
"152 222 OFFCURVE",
"152 266 QCURVE SMOOTH",
"152 309 OFFCURVE",
"172 384 OFFCURVE",
"213 440 OFFCURVE",
"275 472 OFFCURVE",
"318 472 QCURVE SMOOTH",
"355 472 OFFCURVE",
"410 441 OFFCURVE",
"446 386 OFFCURVE",
"464 310 OFFCURVE",
"464 266 QCURVE SMOOTH",
"464 222 OFFCURVE",
"446 147 OFFCURVE",
"409 92 OFFCURVE",
"354 61 OFFCURVE",
"317 61 QCURVE SMOOTH"
);
}
);
visible = 1;
width = 594;
}
);
note = uni0062;
unicode = 0062;
},
{
color = 5;
glyphname = c;
lastChange = "2018-08-07 02:29:55 +0000";
layers = (
{
layerId = "F6752803-E9E3-41A6-B92A-1FAB6ACE0E29";
paths = (
{
closed = 1;
nodes = (
"400 -15 OFFCURVE",
"521 93 OFFCURVE",
"530 190 QCURVE",
"438 190 LINE",
"433 130 OFFCURVE",
"360 61 OFFCURVE",
"297 61 QCURVE SMOOTH",
"206 61 OFFCURVE",
"130 194 OFFCURVE",
"130 268 QCURVE SMOOTH",
"130 341 OFFCURVE",
"206 475 OFFCURVE",
"297 475 QCURVE SMOOTH",
"356 475 OFFCURVE",
"426 415 OFFCURVE",
"436 362 QCURVE",
"529 362 LINE",
"515 449 OFFCURVE",
"394 550 OFFCURVE",
"297 550 QCURVE SMOOTH",
"187 550 OFFCURVE",
"35 396 OFFCURVE",
"35 268 QCURVE SMOOTH",
"35 139 OFFCURVE",
"187 -15 OFFCURVE",
"297 -15 QCURVE SMOOTH"
);
}
);
width = 560;
},
{
layerId = "4E407420-3460-49BF-A41E-BF3B8360384D";
paths = (
{
closed = 1;
nodes = (
"422 -17 OFFCURVE",
"555 113 OFFCURVE",
"557 198 QCURVE",
"405 198 LINE",
"400 152 OFFCURVE",
"349 102 OFFCURVE",
"305 102 QCURVE SMOOTH",
"245 102 OFFCURVE",
"186 192 OFFCURVE",
"186 265 QCURVE SMOOTH",
"186 340 OFFCURVE",
"245 430 OFFCURVE",
"305 430 QCURVE SMOOTH",
"344 430 OFFCURVE",
"392 387 OFFCURVE",
"400 350 QCURVE",
"552 350 LINE",
"545 433 OFFCURVE",
"416 547 OFFCURVE",
"303 547 QCURVE SMOOTH",
"180 547 OFFCURVE",
"27 385 OFFCURVE",
"27 265 QCURVE SMOOTH",
"27 145 OFFCURVE",
"183 -17 OFFCURVE",
"307 -17 QCURVE SMOOTH"
);
}
);
width = 577;
}
);
note = uni0063;
unicode = 0063;
},
{
color = 5;
glyphname = d;
lastChange = "2018-08-05 20:56:30 +0000";
layers = (
{
layerId = "F6752803-E9E3-41A6-B92A-1FAB6ACE0E29";
paths = (
{
closed = 1;
nodes = (
"329 -16 OFFCURVE",
"412 33 OFFCURVE",
"438 77 QCURVE",
"440 77 LINE",
"440 0 LINE",
"532 0 LINE",
"532 736 LINE",
"439 736 LINE",
"439 554 LINE SMOOTH",
"439 503 OFFCURVE",
"442 455 QCURVE",
"440 455 LINE",
"414 498 OFFCURVE",
"327 550 OFFCURVE",
"270 550 QCURVE SMOOTH",
"170 550 OFFCURVE",
"35 393 OFFCURVE",
"35 267 QCURVE SMOOTH",
"35 132 OFFCURVE",
"168 -16 OFFCURVE",
"272 -16 QCURVE SMOOTH"
);
},
{
closed = 1;
nodes = (
"192 61 OFFCURVE",
"130 192 OFFCURVE",
"130 266 QCURVE SMOOTH",
"130 340 OFFCURVE",
"192 472 OFFCURVE",
"279 472 QCURVE SMOOTH",
"369 472 OFFCURVE",
"444 341 OFFCURVE",
"444 266 QCURVE SMOOTH",
"444 182 OFFCURVE",
"372 61 OFFCURVE",
"279 61 QCURVE SMOOTH"
);
}
);
width = 596;
},
{
layerId = "4E407420-3460-49BF-A41E-BF3B8360384D";
paths = (
{
closed = 1;
nodes = (
"309 -17 OFFCURVE",
"394 29 OFFCURVE",
"417 78 QCURVE",
"419 78 LINE",
"419 0 LINE",
"570 0 LINE",
"570 736 LINE",
"413 736 LINE",
"413 581 LINE SMOOTH",
"413 513 OFFCURVE",
"417 458 QCURVE",
"415 458 LINE",
"388 500 OFFCURVE",
"312 547 OFFCURVE",
"257 547 QCURVE SMOOTH",
"155 547 OFFCURVE",
"27 387 OFFCURVE",
"27 266 QCURVE SMOOTH",
"27 130 OFFCURVE",
"153 -17 OFFCURVE",
"255 -17 QCURVE SMOOTH"
);
},
{
closed = 1;
nodes = (
"242 109 OFFCURVE",
"187 195 OFFCURVE",
"187 267 QCURVE SMOOTH",
"187 339 OFFCURVE",
"242 428 OFFCURVE",
"298 428 QCURVE SMOOTH",
"368 428 OFFCURVE",
"418 321 OFFCURVE",
"418 266 QCURVE SMOOTH",
"418 196 OFFCURVE",
"354 109 OFFCURVE",
"297 109 QCURVE SMOOTH"
);
}
);
width = 622;
},
{
associatedMasterId = "F6752803-E9E3-41A6-B92A-1FAB6ACE0E29";
layerId = "035A4638-D646-4452-8629-41A3576A660C";
name = "Aug 5 18, 16:55";
paths = (
{
closed = 1;
nodes = (
"329 -16 OFFCURVE",
"412 33 OFFCURVE",
"438 77 QCURVE",
"440 77 LINE",
"440 0 LINE",
"532 0 LINE",
"532 736 LINE",
"439 736 LINE",
"439 554 LINE SMOOTH",
"440 473 OFFCURVE",
"442 455 QCURVE",
"440 455 LINE",
"414 498 OFFCURVE",
"327 550 OFFCURVE",
"270 550 QCURVE SMOOTH",
"220 550 OFFCURVE",
"134 511 OFFCURVE",
"71 438 OFFCURVE",
"35 333 OFFCURVE",
"35 267 QCURVE SMOOTH",
"35 202 OFFCURVE",
"68 97 OFFCURVE",
"130 24 OFFCURVE",
"218 -16 OFFCURVE",
"272 -16 QCURVE SMOOTH"
);
},
{
closed = 1;
nodes = (
"242 61 OFFCURVE",
"186 92 OFFCURVE",
"149 147 OFFCURVE",
"130 222 OFFCURVE",
"130 266 QCURVE SMOOTH",
"130 310 OFFCURVE",
"149 386 OFFCURVE",
"186 441 OFFCURVE",
"242 472 OFFCURVE",
"279 472 QCURVE SMOOTH",
"319 472 OFFCURVE",
"381 442 OFFCURVE",
"423 387 OFFCURVE",
"444 311 OFFCURVE",
"444 266 QCURVE SMOOTH",
"444 222 OFFCURVE",
"425 147 OFFCURVE",
"384 92 OFFCURVE",
"322 61 OFFCURVE",
"279 61 QCURVE SMOOTH"
);
}
);
visible = 1;
width = 596;
}
);
note = uni0064;
unicode = 0064;
},
{
color = 5;
glyphname = e;
lastChange = "2018-08-07 02:30:09 +0000";
layers = (
{
layerId = "F6752803-E9E3-41A6-B92A-1FAB6ACE0E29";
paths = (
{
closed = 1;
nodes = (
"390 -15 OFFCURVE",
"513 78 OFFCURVE",
"531 153 QCURVE",
"440 153 LINE",
"427 110 OFFCURVE",
"354 61 OFFCURVE",
"298 61 QCURVE SMOOTH",
"229 61 OFFCURVE",
"133 157 OFFCURVE",
"130 246 QCURVE",
"542 246 LINE",
"542 375 OFFCURVE",
"422 550 OFFCURVE",
"292 550 QCURVE SMOOTH",
"184 550 OFFCURVE",
"35 386 OFFCURVE",
"35 268 QCURVE SMOOTH",
"35 149 OFFCURVE",
"175 -15 OFFCURVE",
"297 -15 QCURVE SMOOTH"
);
},
{
closed = 1;
nodes = (
"136 389 OFFCURVE",
"226 478 OFFCURVE",
"292 478 QCURVE SMOOTH",
"362 478 OFFCURVE",
"439 391 OFFCURVE",
"443 313 QCURVE",
"132 313 LINE"
);
}
);
width = 577;
},
{
layerId = "4E407420-3460-49BF-A41E-BF3B8360384D";
paths = (
{
closed = 1;
nodes = (
"409 -16 OFFCURVE",
"549 85 OFFCURVE",
"559 150 QCURVE",
"407 150 LINE",
"394 125 OFFCURVE",
"347 98 OFFCURVE",
"310 98 QCURVE SMOOTH",
"253 98 OFFCURVE",
"189 166 OFFCURVE",
"181 226 QCURVE",
"569 226 LINE",
"570 395 OFFCURVE",
"407 547 OFFCURVE",
"300 547 QCURVE SMOOTH",
"169 547 OFFCURVE",
"27 375 OFFCURVE",
"27 265 QCURVE SMOOTH",
"27 145 OFFCURVE",
"173 -16 OFFCURVE",
"308 -16 QCURVE SMOOTH"
);
},
{
closed = 1;
nodes = (
"190 372 OFFCURVE",
"246 436 OFFCURVE",
"300 436 QCURVE SMOOTH",
"347 436 OFFCURVE",
"405 373 OFFCURVE",
"409 317 QCURVE",
"182 317 LINE"
);
}
);
width = 596;
},
{
associatedMasterId = "F6752803-E9E3-41A6-B92A-1FAB6ACE0E29";
layerId = "503B1406-A5FC-4C65-BB4A-354DE88D9EFA";
name = "Aug 5 18, 16:57";
paths = (
{
closed = 1;
nodes = (
"390 -15 OFFCURVE",
"513 78 OFFCURVE",
"531 153 QCURVE",
"440 153 LINE",
"427 110 OFFCURVE",
"354 61 OFFCURVE",
"298 61 QCURVE SMOOTH",
"259 61 OFFCURVE",
"199 89 OFFCURVE",
"157 139 OFFCURVE",
"133 207 OFFCURVE",
"130 246 QCURVE",
"542 246 LINE",
"542 315 OFFCURVE",
"509 427 OFFCURVE",
"476 467 QCURVE SMOOTH",
"444 506 OFFCURVE",
"352 550 OFFCURVE",
"292 550 QCURVE SMOOTH",
"234 550 OFFCURVE",
"139 506 OFFCURVE",
"72 429 OFFCURVE",
"35 326 OFFCURVE",
"35 268 QCURVE SMOOTH",
"35 209 OFFCURVE",
"70 106 OFFCURVE",
"138 29 OFFCURVE",
"235 -15 OFFCURVE",
"297 -15 QCURVE SMOOTH"
);
},
{
closed = 1;
nodes = (
"362 478 OFFCURVE",
"439 391 OFFCURVE",
"443 313 QCURVE",
"132 313 LINE",
"136 349 OFFCURVE",
"160 409 OFFCURVE",
"200 453 OFFCURVE",
"256 478 OFFCURVE",
"292 478 QCURVE SMOOTH"
);
}
);
visible = 1;
width = 577;
}
);
note = uni0065;
unicode = 0065;
},
{
color = 5;
glyphname = f;
lastChange = "2018-08-05 21:03:53 +0000";
layers = (
{
layerId = "F6752803-E9E3-41A6-B92A-1FAB6ACE0E29";
paths = (
{
closed = 1;
nodes = (
"207 0 LINE",
"207 455 LINE",
"317 455 LINE",
"317 528 LINE",
"207 528 LINE",
"207 596 LINE SMOOTH",
"207 643 OFFCURVE",
"265 673 OFFCURVE",
"318 659 QCURVE",
"318 736 LINE",
"291 745 OFFCURVE",
"261 745 QCURVE SMOOTH",
"191 745 OFFCURVE",
"114 676 OFFCURVE",
"114 600 QCURVE SMOOTH",
"114 528 LINE",
"31 528 LINE",
"31 455 LINE",
"114 455 LINE",
"114 0 LINE"
);
}
);
width = 350;
},
{
layerId = "4E407420-3460-49BF-A41E-BF3B8360384D";
paths = (
{
closed = 1;
nodes = (
"257 0 LINE",
"257 426 LINE",
"368 426 LINE",
"368 528 LINE",
"257 528 LINE",
"257 562 LINE SMOOTH",
"257 611 OFFCURVE",
"323 634 OFFCURVE",
"368 624 QCURVE",
"368 736 LINE",
"334 743 OFFCURVE",
"303 743 QCURVE SMOOTH",
"205 743 OFFCURVE",
"100 672 OFFCURVE",
"100 573 QCURVE SMOOTH",
"100 528 LINE",
"20 528 LINE",
"20 426 LINE",
"100 426 LINE",
"100 0 LINE"
);
}
);
width = 395;
},
{
associatedMasterId = "F6752803-E9E3-41A6-B92A-1FAB6ACE0E29";
layerId = "40EF011B-ED8C-4CB3-ACA4-A2B248E6F8CB";
name = "Aug 5 18, 17:00";
paths = (
{
closed = 1;
nodes = (
"31 464 LINE",
"114 464 LINE",
"114 0 LINE",
"207 0 LINE",
"207 464 LINE",
"317 464 LINE",
"317 537 LINE",
"207 537 LINE",
"207 607 LINE SMOOTH",
"207 628 OFFCURVE",
"217 654 OFFCURVE",
"242 669 OFFCURVE",
"285 672 OFFCURVE",
"318 670 QCURVE",
"318 747 LINE",
"305 748 OFFCURVE",
"281 749 OFFCURVE",
"270 749 QCURVE SMOOTH",
"231 749 OFFCURVE",
"172 735 OFFCURVE",
"152 718 QCURVE SMOOTH",
"114 685 OFFCURVE",
"114 611 QCURVE SMOOTH",
"114 537 LINE",
"31 537 LINE"
);
}
);
visible = 1;
width = 350;
}
);
note = uni0066;
unicode = 0066;
},
{
color = 5;
glyphname = g;
lastChange = "2018-08-05 21:23:39 +0000";
layers = (
{
layerId = "F6752803-E9E3-41A6-B92A-1FAB6ACE0E29";
paths = (
{
closed = 1;
nodes = (
"415 -188 OFFCURVE",
"530 -72 OFFCURVE",
"530 22 QCURVE SMOOTH",
"530 528 LINE",
"438 528 LINE",
"438 457 LINE",
"436 457 LINE",
"381 541 OFFCURVE",
"273 541 QCURVE SMOOTH",
"176 541 OFFCURVE",
"43 400 OFFCURVE",
"43 287 QCURVE SMOOTH",
"43 188 OFFCURVE",
"157 24 OFFCURVE",
"278 24 QCURVE SMOOTH",
"375 24 OFFCURVE",
"438 110 QCURVE",
"440 110 LINE",
"438 56 OFFCURVE",
"438 33 QCURVE SMOOTH",
"438 -51 OFFCURVE",
"369 -116 OFFCURVE",
"289 -116 QCURVE SMOOTH",
"229 -116 OFFCURVE",
"153 -79 OFFCURVE",
"147 -37 QCURVE",
"60 -37 LINE",
"68 -109 OFFCURVE",
"185 -188 OFFCURVE",
"291 -188 QCURVE SMOOTH"
);
},
{
closed = 1;
nodes = (
"214 100 OFFCURVE",
"138 200 OFFCURVE",
"138 286 QCURVE SMOOTH",
"138 362 OFFCURVE",
"212 464 OFFCURVE",
"286 464 QCURVE SMOOTH",
"367 464 OFFCURVE",
"444 367 OFFCURVE",
"444 291 QCURVE SMOOTH",
"444 220 OFFCURVE",
"381 100 OFFCURVE",
"287 100 QCURVE SMOOTH"
);
}
);
width = 595;
},
{
layerId = "4E407420-3460-49BF-A41E-BF3B8360384D";
paths = (
{
closed = 1;
nodes = (
"418 -185 OFFCURVE",
"560 -73 OFFCURVE",
"560 47 QCURVE SMOOTH",
"560 528 LINE",
"410 528 LINE",
"410 460 LINE",
"408 460 LINE",
"360 543 OFFCURVE",
"255 543 QCURVE SMOOTH",
"156 543 OFFCURVE",
"31 409 OFFCURVE",
"31 285 QCURVE SMOOTH",
"31 155 OFFCURVE",
"177 33 OFFCURVE",
"263 33 QCURVE SMOOTH",
"355 33 OFFCURVE",
"407 111 QCURVE",
"411 111 LINE",
"408 84 OFFCURVE",
"408 41 QCURVE SMOOTH",
"408 -22 OFFCURVE",
"355 -73 OFFCURVE",
"297 -73 QCURVE SMOOTH",
"251 -73 OFFCURVE",
"204 -43 OFFCURVE",
"196 -19 QCURVE",
"43 -19 LINE",
"55 -98 OFFCURVE",
"189 -185 OFFCURVE",
"299 -185 QCURVE SMOOTH"
);
},
{
closed = 1;
nodes = (
"245 151 OFFCURVE",
"185 226 OFFCURVE",
"185 289 QCURVE SMOOTH",
"185 349 OFFCURVE",
"245 424 OFFCURVE",
"297 424 QCURVE SMOOTH",
"355 424 OFFCURVE",
"413 345 OFFCURVE",
"413 290 QCURVE SMOOTH",
"413 240 OFFCURVE",
"364 151 OFFCURVE",
"298 151 QCURVE SMOOTH"
);
}
);
width = 613;
}
);
note = uni0067;
unicode = 0067;
},
{
color = 5;
glyphname = h;
lastChange = "2018-08-05 21:05:40 +0000";
layers = (
{
layerId = "F6752803-E9E3-41A6-B92A-1FAB6ACE0E29";
paths = (
{
closed = 1;
nodes = (
"157 0 LINE",
"157 327 LINE SMOOTH",
"157 399 OFFCURVE",
"239 472 OFFCURVE",
"300 472 QCURVE SMOOTH",
"355 472 OFFCURVE",
"418 416 OFFCURVE",
"418 364 QCURVE SMOOTH",
"418 0 LINE",
"510 0 LINE",
"510 375 LINE SMOOTH",
"510 460 OFFCURVE",
"414 550 OFFCURVE",
"329 550 QCURVE SMOOTH",
"270 550 OFFCURVE",
"187 502 OFFCURVE",
"157 459 QCURVE",
"154 459 LINE",
"155 490 OFFCURVE",
"157 551 QCURVE",
"157 736 LINE",
"64 736 LINE",
"64 0 LINE"
);
}
);
width = 571;
},
{
layerId = "4E407420-3460-49BF-A41E-BF3B8360384D";
paths = (
{
closed = 1;
nodes = (
"209 0 LINE",
"209 300 LINE SMOOTH",
"209 351 OFFCURVE",
"265 417 OFFCURVE",
"311 417 QCURVE SMOOTH",
"355 417 OFFCURVE",
"400 364 OFFCURVE",
"400 320 QCURVE SMOOTH",
"400 0 LINE",
"556 0 LINE",
"556 350 LINE SMOOTH",
"556 440 OFFCURVE",
"459 547 OFFCURVE",
"371 547 QCURVE SMOOTH",
"315 547 OFFCURVE",
"235 499 OFFCURVE",
"211 456 QCURVE",
"208 456 LINE",
"208 512 OFFCURVE",
"209 569 QCURVE",
"209 736 LINE",
"52 736 LINE",
"52 0 LINE"
);
}
);
width = 604;
}
);
note = uni0068;
unicode = 0068;
},
{
color = 5;
glyphname = i;
lastChange = "2018-08-05 20:46:46 +0000";
layers = (
{
layerId = "F6752803-E9E3-41A6-B92A-1FAB6ACE0E29";
paths = (
{
closed = 1;
nodes = (
"160 0 LINE",
"160 537 LINE",
"64 537 LINE",
"64 0 LINE"
);
},
{
closed = 1;
nodes = (
"162 636 LINE",
"162 744 LINE",
"62 744 LINE",
"62 636 LINE"
);
}
);
width = 221;
},
{
layerId = "4E407420-3460-49BF-A41E-BF3B8360384D";
paths = (
{
closed = 1;
nodes = (
"206 0 LINE",
"206 528 LINE",
"49 528 LINE",
"49 0 LINE"
);
},
{
closed = 1;
nodes = (
"207 607 LINE",
"207 736 LINE",
"48 736 LINE",
"48 607 LINE"
);
}
);
width = 255;
}
);
note = uni0069;
unicode = 0069;
},
{
color = 5;
glyphname = j;
lastChange = "2018-08-05 21:26:04 +0000";
layers = (
{
layerId = "F6752803-E9E3-41A6-B92A-1FAB6ACE0E29";
paths = (
{
closed = 1;
nodes = (
"87 -170 OFFCURVE",
"157 -115 OFFCURVE",
"157 -46 QCURVE SMOOTH",
"157 528 LINE",
"64 528 LINE",
"64 -41 LINE SMOOTH",
"64 -70 OFFCURVE",
"37 -93 OFFCURVE",
"10 -94 QCURVE",
"-22 -91 LINE",
"-22 -165 LINE",
"30 -170 LINE"
);
},
{
closed = 1;
nodes = (
"62 627 LINE",
"159 627 LINE",
"159 736 LINE",
"62 736 LINE"
);
}
);
width = 222;
},
{
layerId = "4E407420-3460-49BF-A41E-BF3B8360384D";
paths = (
{
closed = 1;
nodes = (
"128 -188 OFFCURVE",
"209 -104 OFFCURVE",
"209 -13 QCURVE SMOOTH",
"209 528 LINE",
"52 528 LINE",
"52 -7 LINE SMOOTH",
"52 -36 OFFCURVE",
"29 -61 OFFCURVE",
"6 -63 QCURVE SMOOTH",
"-37 -62 LINE",
"-37 -173 LINE",
"52 -181 LINE SMOOTH"
);
},
{
closed = 1;
nodes = (
"51 603 LINE",
"210 603 LINE",
"210 736 LINE",
"51 736 LINE"
);
}
);
width = 261;
}
);
note = uni006A;
unicode = 006A;
},
{
color = 5;
glyphname = k;
lastChange = "2018-08-05 21:26:52 +0000";
layers = (
{
layerId = "F6752803-E9E3-41A6-B92A-1FAB6ACE0E29";
paths = (
{
closed = 1;
nodes = (
"157 0 LINE",
"157 211 LINE",
"233 283 LINE",
"417 0 LINE",
"526 0 LINE",
"297 344 LINE",
"502 528 LINE",
"386 528 LINE",
"153 308 LINE",
"157 328 OFFCURVE",
"157 391 QCURVE SMOOTH",
"157 736 LINE",
"64 736 LINE",
"64 0 LINE"
);
}
);
width = 542;
},
{
layerId = "4E407420-3460-49BF-A41E-BF3B8360384D";
paths = (
{
closed = 1;
nodes = (
"207 0 LINE",
"207 177 LINE",
"260 232 LINE",
"399 0 LINE",
"581 0 LINE",
"369 335 LINE",
"559 528 LINE",
"377 528 LINE",
"202 341 LINE",
"207 432 OFFCURVE",
"207 512 QCURVE SMOOTH",
"207 736 LINE",
"52 736 LINE",
"52 0 LINE"
);
}
);
width = 590;
}
);
note = uni006B;
unicode = 006B;
},
{
color = 5;
glyphname = l;
lastChange = "2018-08-05 21:27:18 +0000";
layers = (
{
layerId = "F6752803-E9E3-41A6-B92A-1FAB6ACE0E29";
paths = (
{
closed = 1;
nodes = (
"160 0 LINE",
"160 736 LINE",
"67 736 LINE",
"67 0 LINE"
);
}
);
width = 227;
},
{
layerId = "4E407420-3460-49BF-A41E-BF3B8360384D";
paths = (
{
closed = 1;
nodes = (
"212 0 LINE",
"212 736 LINE",
"54 736 LINE",
"54 0 LINE"
);
}
);
width = 265;
}
);
note = uni006C;
unicode = 006C;
},
{
color = 5;
glyphname = m;
lastChange = "2018-08-05 21:29:53 +0000";
layers = (
{
layerId = "F6752803-E9E3-41A6-B92A-1FAB6ACE0E29";
paths = (
{
closed = 1;
nodes = (
"157 0 LINE",
"157 322 LINE SMOOTH",
"157 373 OFFCURVE",
"226 463 OFFCURVE",
"290 463 QCURVE SMOOTH",
"332 463 OFFCURVE",
"382 408 OFFCURVE",
"382 358 QCURVE SMOOTH",
"382 0 LINE",
"474 0 LINE",
"474 322 LINE SMOOTH",
"474 393 OFFCURVE",
"555 463 OFFCURVE",
"601 463 QCURVE SMOOTH",
"642 463 OFFCURVE",
"698 408 OFFCURVE",
"698 358 QCURVE SMOOTH",
"698 0 LINE",
"791 0 LINE",
"791 366 LINE SMOOTH",
"791 451 OFFCURVE",
"699 541 OFFCURVE",
"625 541 QCURVE SMOOTH",
"516 541 OFFCURVE",
"459 441 QCURVE",
"457 441 LINE",
"417 541 OFFCURVE",
"318 541 QCURVE SMOOTH",
"216 541 OFFCURVE",
"159 448 QCURVE",
"156 448 LINE",
"156 528 LINE",
"64 528 LINE",
"64 0 LINE"
);
}
);
width = 852;
},
{
layerId = "4E407420-3460-49BF-A41E-BF3B8360384D";
paths = (
{
closed = 1;
nodes = (
"209 0 LINE",
"209 299 LINE SMOOTH",
"209 350 OFFCURVE",
"259 414 OFFCURVE",
"301 414 QCURVE SMOOTH",
"340 414 OFFCURVE",
"379 365 OFFCURVE",
"379 321 QCURVE SMOOTH",
"379 0 LINE",
"536 0 LINE",
"536 299 LINE SMOOTH",
"536 350 OFFCURVE",
"585 414 OFFCURVE",
"627 414 QCURVE SMOOTH",
"665 414 OFFCURVE",
"706 365 OFFCURVE",
"706 321 QCURVE SMOOTH",
"706 0 LINE",
"862 0 LINE",
"862 347 LINE SMOOTH",
"862 436 OFFCURVE",
"772 543 OFFCURVE",
"683 543 QCURVE SMOOTH",
"572 543 OFFCURVE",
"514 442 QCURVE",
"512 442 LINE",
"471 543 OFFCURVE",
"366 543 QCURVE SMOOTH",
"269 543 OFFCURVE",
"206 445 QCURVE",
"203 445 LINE",
"203 528 LINE",
"52 528 LINE",
"52 0 LINE"
);
}
);
width = 910;
},
{
associatedMasterId = "F6752803-E9E3-41A6-B92A-1FAB6ACE0E29";
layerId = "E14AF7DC-3230-4DEE-AF01-5E2EA87A8F40";
name = "Aug 5 18, 17:27";
paths = (
{
closed = 1;
nodes = (
"64 0 LINE",
"157 0 LINE",
"157 322 LINE SMOOTH",
"157 353 OFFCURVE",
"181 404 OFFCURVE",
"218 442 OFFCURVE",
"266 463 OFFCURVE",
"290 463 QCURVE SMOOTH",
"332 463 OFFCURVE",
"382 408 OFFCURVE",
"382 358 QCURVE SMOOTH",
"382 0 LINE",
"474 0 LINE",
"474 322 LINE SMOOTH",
"474 353 OFFCURVE",
"495 404 OFFCURVE",
"529 442 OFFCURVE",
"575 463 OFFCURVE",
"601 463 QCURVE SMOOTH",
"642 463 OFFCURVE",
"698 408 OFFCURVE",
"698 358 QCURVE SMOOTH",
"698 0 LINE",
"791 0 LINE",
"791 366 LINE SMOOTH",
"791 451 OFFCURVE",
"699 541 OFFCURVE",
"625 541 QCURVE SMOOTH",
"576 541 OFFCURVE",
"488 492 OFFCURVE",
"459 441 QCURVE",
"457 441 LINE",
"440 491 OFFCURVE",
"367 541 OFFCURVE",
"318 541 QCURVE SMOOTH",
"266 541 OFFCURVE",
"184 492 OFFCURVE",
"159 448 QCURVE",
"156 448 LINE",
"156 528 LINE",
"64 528 LINE"
);
}
);
visible = 1;
width = 852;
}
);
note = uni006D;
unicode = 006D;
},
{
color = 5;
glyphname = n;
lastChange = "2018-08-05 20:47:11 +0000";
layers = (
{
layerId = "F6752803-E9E3-41A6-B92A-1FAB6ACE0E29";
paths = (
{
closed = 1;
nodes = (
"157 0 LINE",
"157 318 LINE SMOOTH",
"157 380 OFFCURVE",
"219 463 OFFCURVE",
"300 463 QCURVE SMOOTH",
"355 463 OFFCURVE",
"418 407 OFFCURVE",
"418 355 QCURVE SMOOTH",
"418 0 LINE",
"510 0 LINE",
"510 366 LINE SMOOTH",
"510 451 OFFCURVE",
"414 541 OFFCURVE",
"329 541 QCURVE SMOOTH",
"270 541 OFFCURVE",
"188 493 OFFCURVE",
"159 452 QCURVE",
"156 452 LINE",
"156 528 LINE",
"64 528 LINE",
"64 0 LINE"
);
}
);
width = 571;
},
{
layerId = "4E407420-3460-49BF-A41E-BF3B8360384D";
paths = (
{
closed = 1;
nodes = (
"209 0 LINE",
"209 300 LINE SMOOTH",
"209 351 OFFCURVE",
"265 417 OFFCURVE",
"311 417 QCURVE SMOOTH",
"355 417 OFFCURVE",
"400 364 OFFCURVE",
"400 320 QCURVE SMOOTH",
"400 0 LINE",
"556 0 LINE",
"556 350 LINE SMOOTH",
"556 436 OFFCURVE",
"459 543 OFFCURVE",
"371 543 QCURVE SMOOTH",
"315 543 OFFCURVE",
"232 495 OFFCURVE",
"207 447 QCURVE",
"204 447 LINE",
"204 528 LINE",
"52 528 LINE",
"52 0 LINE"
);
}
);
width = 604;
}
);
note = uni006E;
unicode = 006E;
},
{
color = 5;
glyphname = o;
lastChange = "2018-08-05 20:49:54 +0000";
layers = (
{
layerId = "F6752803-E9E3-41A6-B92A-1FAB6ACE0E29";
paths = (
{
closed = 1;
nodes = (
"419 -15 OFFCURVE",
"559 149 OFFCURVE",
"559 268 QCURVE SMOOTH",
"559 386 OFFCURVE",
"419 550 OFFCURVE",
"298 550 QCURVE SMOOTH",
"177 550 OFFCURVE",
"35 386 OFFCURVE",
"35 268 QCURVE SMOOTH",
"35 149 OFFCURVE",
"177 -15 OFFCURVE",
"298 -15 QCURVE SMOOTH"
);
},
{
closed = 1;
nodes = (
"216 61 OFFCURVE",
"130 174 OFFCURVE",
"130 268 QCURVE SMOOTH",
"130 361 OFFCURVE",
"216 476 OFFCURVE",
"297 476 QCURVE SMOOTH",
"378 476 OFFCURVE",
"464 361 OFFCURVE",
"464 268 QCURVE SMOOTH",
"464 174 OFFCURVE",
"378 61 OFFCURVE",
"297 61 QCURVE SMOOTH"
);
}
);
width = 594;
},
{
layerId = "4E407420-3460-49BF-A41E-BF3B8360384D";
paths = (
{
closed = 1;
nodes = (
"432 -17 OFFCURVE",
"589 145 OFFCURVE",
"589 265 QCURVE SMOOTH",
"589 385 OFFCURVE",
"432 547 OFFCURVE",
"309 547 QCURVE SMOOTH",
"185 547 OFFCURVE",
"27 385 OFFCURVE",
"27 265 QCURVE SMOOTH",
"27 145 OFFCURVE",
"185 -17 OFFCURVE",
"309 -17 QCURVE SMOOTH"
);
},
{
closed = 1;
nodes = (
"248 97 OFFCURVE",
"186 190 OFFCURVE",
"186 265 QCURVE SMOOTH",
"186 341 OFFCURVE",
"248 435 OFFCURVE",
"308 435 QCURVE SMOOTH",
"367 435 OFFCURVE",
"430 341 OFFCURVE",
"430 265 QCURVE SMOOTH",
"430 190 OFFCURVE",
"367 97 OFFCURVE",
"308 97 QCURVE SMOOTH"
);
}
);
width = 616;
}
);
note = uni006F;
unicode = 006F;
},
{
color = 5;
glyphname = p;
lastChange = "2018-08-06 09:23:11 +0000";
layers = (
{
layerId = "F6752803-E9E3-41A6-B92A-1FAB6ACE0E29";
paths = (
{
closed = 1;
nodes = (
"157 -182 LINE",
"157 -19 LINE SMOOTH",
"156 57 OFFCURVE",
"155 71 QCURVE",
"158 71 LINE",
"222 -16 OFFCURVE",
"327 -16 QCURVE SMOOTH",
"441 -16 OFFCURVE",
"561 122 OFFCURVE",
"561 267 QCURVE SMOOTH",
"561 394 OFFCURVE",
"436 542 OFFCURVE",
"330 541 QCURVE SMOOTH",
"222 540 OFFCURVE",
"159 444 QCURVE",
"156 444 LINE",
"156 528 LINE",
"64 528 LINE",
"64 -182 LINE"
);
},
{
closed = 1;
nodes = (
"242 61 OFFCURVE",
"152 173 OFFCURVE",
"152 265 QCURVE SMOOTH",
"152 339 OFFCURVE",
"235 462 OFFCURVE",
"318 462 QCURVE SMOOTH",
"405 462 OFFCURVE",
"466 370 OFFCURVE",
"466 265 QCURVE SMOOTH",
"466 161 OFFCURVE",
"384 61 OFFCURVE",
"317 61 QCURVE SMOOTH"
);
}
);
width = 596;
},
{
layerId = "4E407420-3460-49BF-A41E-BF3B8360384D";
paths = (
{
closed = 1;
nodes = (
"209 -177 LINE",
"209 -50 LINE SMOOTH",
"209 0 OFFCURVE",
"204 66 QCURVE",
"206 66 LINE",
"270 -17 OFFCURVE",
"363 -17 QCURVE SMOOTH",
"476 -17 OFFCURVE",
"597 121 OFFCURVE",
"597 266 QCURVE SMOOTH",
"597 387 OFFCURVE",
"471 547 OFFCURVE",
"368 547 QCURVE SMOOTH",
"260 547 OFFCURVE",
"206 456 QCURVE",
"203 456 LINE",
"203 528 LINE",
"52 528 LINE",
"52 -177 LINE"
);
},
{
closed = 1;
nodes = (
"266 105 OFFCURVE",
"204 192 OFFCURVE",
"204 261 QCURVE SMOOTH",
"204 345 OFFCURVE",
"274 422 OFFCURVE",
"324 422 QCURVE SMOOTH",
"382 422 OFFCURVE",
"438 333 OFFCURVE",
"438 261 QCURVE SMOOTH",
"438 189 OFFCURVE",
"380 105 OFFCURVE",
"326 105 QCURVE SMOOTH"
);
}
);
width = 624;
}
);
note = uni0070;
unicode = 0070;
},
{
color = 5;
glyphname = q;
lastChange = "2018-08-07 02:14:24 +0000";
layers = (
{
layerId = "F6752803-E9E3-41A6-B92A-1FAB6ACE0E29";
paths = (
{
closed = 1;
nodes = (
"439 -182 LINE",
"531 -182 LINE",
"531 528 LINE",
"440 528 LINE",
"440 457 LINE",
"437 457 LINE",
"327 550 OFFCURVE",
"269 550 QCURVE SMOOTH",
"149 550 OFFCURVE",
"38 383 OFFCURVE",
"38 267 QCURVE SMOOTH",
"38 132 OFFCURVE",
"148 -16 OFFCURVE",
"272 -16 QCURVE SMOOTH",
"329 -16 OFFCURVE",
"439 71 QCURVE",
"442 71 LINE",
"439 28 OFFCURVE",
"439 -19 QCURVE SMOOTH"
);
},
{
closed = 1;
nodes = (
"202 61 OFFCURVE",
"132 171 OFFCURVE",
"132 265 QCURVE SMOOTH",
"132 369 OFFCURVE",
"202 471 OFFCURVE",
"279 471 QCURVE SMOOTH",
"361 471 OFFCURVE",
"444 370 OFFCURVE",
"444 265 QCURVE SMOOTH",
"444 171 OFFCURVE",
"364 61 OFFCURVE",
"280 61 QCURVE SMOOTH"
);
}
);
width = 596;
},
{
layerId = "4E407420-3460-49BF-A41E-BF3B8360384D";
paths = (
{
closed = 1;
nodes = (
"416 -177 LINE",
"572 -177 LINE",
"572 528 LINE",
"422 528 LINE",
"422 457 LINE",
"419 457 LINE",
"366 547 OFFCURVE",
"259 547 QCURVE SMOOTH",
"156 547 OFFCURVE",
"28 387 OFFCURVE",
"28 266 QCURVE SMOOTH",
"28 121 OFFCURVE",
"178 -17 OFFCURVE",
"262 -17 QCURVE SMOOTH",
"355 -17 OFFCURVE",
"418 66 QCURVE",
"420 66 LINE",
"416 -12 OFFCURVE",
"416 -50 QCURVE SMOOTH"
);
},
{
closed = 1;
nodes = (
"245 105 OFFCURVE",
"187 189 OFFCURVE",
"187 261 QCURVE SMOOTH",
"187 332 OFFCURVE",
"242 422 OFFCURVE",
"301 422 QCURVE SMOOTH",
"371 422 OFFCURVE",
"421 325 OFFCURVE",
"421 261 QCURVE SMOOTH",
"421 192 OFFCURVE",
"359 105 OFFCURVE",
"298 105 QCURVE SMOOTH"
);
}
);
width = 624;
}
);
note = uni0071;
unicode = 0071;
},
{
color = 5;
glyphname = r;
lastChange = "2018-08-05 21:33:31 +0000";
layers = (
{
layerId = "F6752803-E9E3-41A6-B92A-1FAB6ACE0E29";
paths = (
{
closed = 1;
nodes = (
"157 0 LINE",
"157 283 LINE SMOOTH",
"157 361 OFFCURVE",
"230 444 OFFCURVE",
"311 446 QCURVE SMOOTH",
"323 446 OFFCURVE",
"352 441 QCURVE",
"352 529 LINE",
"344 535 OFFCURVE",
"318 535 QCURVE SMOOTH",
"224 535 OFFCURVE",
"159 431 QCURVE",
"156 431 LINE",
"156 528 LINE",
"64 528 LINE",
"64 0 LINE"
);
}
);
width = 379;
},
{
layerId = "4E407420-3460-49BF-A41E-BF3B8360384D";
paths = (
{
closed = 1;
nodes = (
"209 0 LINE",
"209 243 LINE SMOOTH",
"209 321 OFFCURVE",
"286 399 OFFCURVE",
"350 399 QCURVE SMOOTH",
"370 399 OFFCURVE",
"387 391 QCURVE",
"387 528 LINE",
"377 537 OFFCURVE",
"354 537 QCURVE SMOOTH",
"253 537 OFFCURVE",
"206 433 QCURVE",
"203 433 LINE",
"203 528 LINE",
"52 528 LINE",
"52 0 LINE"
);
}
);
width = 410;
}
);
note = uni0072;
unicode = 0072;
},
{
color = 5;
glyphname = s;
lastChange = "2018-08-05 21:37:35 +0000";
layers = (
{
layerId = "F6752803-E9E3-41A6-B92A-1FAB6ACE0E29";
paths = (
{
closed = 1;
nodes = (
"357 -16 OFFCURVE",
"486 68 OFFCURVE",
"486 149 QCURVE SMOOTH",
"486 236 OFFCURVE",
"377 305 OFFCURVE",
"287 319 QCURVE SMOOTH",
"211 331 OFFCURVE",
"144 371 OFFCURVE",
"144 404 QCURVE SMOOTH",
"144 435 OFFCURVE",
"193 479 OFFCURVE",
"248 479 QCURVE SMOOTH",
"356 479 OFFCURVE",
"371 393 QCURVE",
"464 393 LINE",
"455 463 OFFCURVE",
"351 549 OFFCURVE",
"250 549 QCURVE SMOOTH",
"156 549 OFFCURVE",
"53 468 OFFCURVE",
"53 399 QCURVE SMOOTH",
"53 325 OFFCURVE",
"154 255 OFFCURVE",
"253 237 QCURVE SMOOTH",
"323 224 OFFCURVE",
"393 188 OFFCURVE",
"393 144 QCURVE SMOOTH",
"393 108 OFFCURVE",
"336 59 OFFCURVE",
"272 59 QCURVE SMOOTH",
"213 59 OFFCURVE",
"128 104 OFFCURVE",
"124 163 QCURVE",
"30 163 LINE",
"36 81 OFFCURVE",
"158 -16 OFFCURVE",
"270 -16 QCURVE SMOOTH"
);
}
);
width = 522;
},
{
layerId = "4E407420-3460-49BF-A41E-BF3B8360384D";
paths = (
{
closed = 1;
nodes = (
"385 -17 OFFCURVE",
"513 75 OFFCURVE",
"513 158 QCURVE SMOOTH",
"513 238 OFFCURVE",
"406 318 OFFCURVE",
"310 334 QCURVE SMOOTH",
"254 343 OFFCURVE",
"179 368 OFFCURVE",
"179 393 QCURVE SMOOTH",
"179 419 OFFCURVE",
"222 447 OFFCURVE",
"258 447 QCURVE SMOOTH",
"333 447 OFFCURVE",
"348 390 QCURVE",
"494 390 LINE",
"483 460 OFFCURVE",
"369 547 OFFCURVE",
"258 547 QCURVE SMOOTH",
"151 547 OFFCURVE",
"34 452 OFFCURVE",
"34 381 QCURVE SMOOTH",
"34 304 OFFCURVE",
"129 232 OFFCURVE",
"225 215 QCURVE SMOOTH",
"253 210 OFFCURVE",
"362 188 OFFCURVE",
"362 147 QCURVE SMOOTH",
"362 118 OFFCURVE",
"316 86 OFFCURVE",
"274 86 QCURVE SMOOTH",
"228 86 OFFCURVE",
"173 126 OFFCURVE",
"166 164 QCURVE",
"18 164 LINE",
"21 94 OFFCURVE",
"145 -17 OFFCURVE",
"273 -17 QCURVE SMOOTH"
);
}
);
width = 539;
},
{
associatedMasterId = "4E407420-3460-49BF-A41E-BF3B8360384D";
layerId = "2D0B3F4E-1485-4F2D-8498-6C33FCD0D1AE";
name = "Aug 5 18, 17:35";
paths = (
{
closed = 1;
nodes = (
"325 -17 OFFCURVE",
"413 5 OFFCURVE",
"477 49 OFFCURVE",
"513 115 OFFCURVE",
"513 158 QCURVE SMOOTH",
"513 208 OFFCURVE",
"476 271 OFFCURVE",
"418 309 OFFCURVE",
"346 328 OFFCURVE",
"310 334 QCURVE SMOOTH",
"283 339 OFFCURVE",
"235 347 OFFCURVE",
"199 359 OFFCURVE",
"179 378 OFFCURVE",
"179 393 QCURVE SMOOTH",
"179 419 OFFCURVE",
"222 447 OFFCURVE",
"258 447 QCURVE SMOOTH",
"333 447 OFFCURVE",
"348 390 QCURVE",
"494 390 LINE",
"483 460 OFFCURVE",
"369 547 OFFCURVE",
"258 547 QCURVE SMOOTH",
"211 547 OFFCURVE",
"129 526 OFFCURVE",
"69 484 OFFCURVE",
"34 422 OFFCURVE",
"34 381 QCURVE SMOOTH",
"34 334 OFFCURVE",
"67 276 OFFCURVE",
"121 240 OFFCURVE",
"189 222 OFFCURVE",
"225 215 QCURVE SMOOTH",
"253 210 OFFCURVE",
"302 201 OFFCURVE",
"340 187 OFFCURVE",
"362 165 OFFCURVE",
"362 147 QCURVE SMOOTH",
"362 118 OFFCURVE",
"316 86 OFFCURVE",
"274 86 QCURVE SMOOTH",
"228 86 OFFCURVE",
"173 126 OFFCURVE",
"166 164 QCURVE",
"18 164 LINE",
"21 124 OFFCURVE",
"58 57 OFFCURVE",
"123 9 OFFCURVE",
"215 -17 OFFCURVE",
"273 -17 QCURVE SMOOTH"
);
}
);
visible = 1;
width = 539;
}
);
note = uni0073;
unicode = 0073;
},
{
color = 5;
glyphname = t;
lastChange = "2018-08-05 21:39:23 +0000";
layers = (
{
layerId = "F6752803-E9E3-41A6-B92A-1FAB6ACE0E29";
paths = (
{
closed = 1;
nodes = (
"274 -4 OFFCURVE",
"312 5 QCURVE",
"309 83 LINE",
"301 81 OFFCURVE",
"262 76 QCURVE SMOOTH",
"236 76 OFFCURVE",
"207 97 OFFCURVE",
"207 126 QCURVE SMOOTH",
"207 465 LINE",
"318 465 LINE",
"318 537 LINE",
"207 537 LINE",
"207 706 LINE",
"115 706 LINE",
"115 537 LINE",
"31 537 LINE",
"31 465 LINE",
"115 465 LINE",
"115 105 LINE SMOOTH",
"115 46 OFFCURVE",
"183 -3 OFFCURVE",
"237 -4 QCURVE SMOOTH"
);
}
);
width = 351;
},
{
layerId = "4E407420-3460-49BF-A41E-BF3B8360384D";
paths = (
{
closed = 1;
nodes = (
"299 -6 OFFCURVE",
"358 2 QCURVE",
"350 119 LINE",
"342 118 OFFCURVE",
"314 117 QCURVE SMOOTH",
"286 117 OFFCURVE",
"255 138 OFFCURVE",
"255 168 QCURVE SMOOTH",
"255 432 LINE",
"359 432 LINE",
"359 532 LINE",
"255 532 LINE",
"255 702 LINE",
"101 702 LINE",
"101 532 LINE",
"21 532 LINE",
"21 432 LINE",
"101 432 LINE",
"101 134 LINE SMOOTH",
"101 73 OFFCURVE",
"190 -6 OFFCURVE",
"267 -6 QCURVE SMOOTH"
);
}
);
width = 389;
}
);
note = uni0074;
unicode = 0074;
},
{
color = 5;
glyphname = u;
lastChange = "2018-08-07 02:19:40 +0000";
layers = (
{
layerId = "F6752803-E9E3-41A6-B92A-1FAB6ACE0E29";
paths = (
{
closed = 1;
nodes = (
"341 -12 OFFCURVE",
"405 75 QCURVE",
"407 75 LINE",
"407 0 LINE",
"499 0 LINE",
"499 528 LINE",
"406 528 LINE",
"406 210 LINE SMOOTH",
"406 149 OFFCURVE",
"332 64 OFFCURVE",
"271 64 QCURVE SMOOTH",
"215 64 OFFCURVE",
"154 121 OFFCURVE",
"154 172 QCURVE SMOOTH",
"154 528 LINE",
"61 528 LINE",
"61 167 LINE SMOOTH",
"61 82 OFFCURVE",
"159 -12 OFFCURVE",
"243 -12 QCURVE SMOOTH"
);
}
);
width = 564;
},
{
layerId = "4E407420-3460-49BF-A41E-BF3B8360384D";
paths = (
{
closed = 1;
nodes = (
"320 -15 OFFCURVE",
"395 76 QCURVE",
"398 76 LINE",
"398 0 LINE",
"547 0 LINE",
"547 528 LINE",
"392 528 LINE",
"392 231 LINE SMOOTH",
"392 181 OFFCURVE",
"338 117 OFFCURVE",
"290 117 QCURVE SMOOTH",
"248 117 OFFCURVE",
"205 165 OFFCURVE",
"205 210 QCURVE SMOOTH",
"205 528 LINE",
"48 528 LINE",
"48 180 LINE SMOOTH",
"48 92 OFFCURVE",
"144 -15 OFFCURVE",
"235 -15 QCURVE SMOOTH"
);
}
);
width = 599;
}
);
note = uni0075;
unicode = 0075;
},
{
color = 5;
glyphname = v;
lastChange = "2018-08-07 02:20:15 +0000";
layers = (
{
layerId = "F6752803-E9E3-41A6-B92A-1FAB6ACE0E29";
paths = (
{
closed = 1;
nodes = (
"295 0 LINE",
"488 528 LINE",
"392 528 LINE",
"296 247 LINE SMOOTH",
"287 220 OFFCURVE",
"249 76 QCURVE",
"247 76 LINE",
"221 179 OFFCURVE",
"198 247 QCURVE SMOOTH",
"104 528 LINE",
"5 528 LINE",
"192 0 LINE"
);
}
);
width = 493;
},
{
layerId = "4E407420-3460-49BF-A41E-BF3B8360384D";
paths = (
{
closed = 1;
nodes = (
"358 0 LINE",
"544 528 LINE",
"386 528 LINE",
"319 318 LINE SMOOTH",
"310 291 OFFCURVE",
"277 132 QCURVE",
"274 132 LINE",
"243 281 OFFCURVE",
"232 318 QCURVE SMOOTH",
"167 528 LINE",
"5 528 LINE",
"189 0 LINE"
);
}
);
width = 549;
}
);
note = uni0076;
unicode = 0076;
},
{
color = 5;
glyphname = w;
lastChange = "2018-08-07 02:21:41 +0000";
layers = (
{
layerId = "F6752803-E9E3-41A6-B92A-1FAB6ACE0E29";
paths = (
{
closed = 1;
nodes = (
"274 0 LINE",
"355 296 LINE SMOOTH",
"372 358 OFFCURVE",
"388 437 QCURVE",
"390 437 LINE",
"407 358 OFFCURVE",
"424 296 QCURVE SMOOTH",
"503 0 LINE",
"596 0 LINE",
"771 528 LINE",
"675 528 LINE",
"586 239 LINE SMOOTH",
"561 159 OFFCURVE",
"551 81 QCURVE",
"549 81 LINE",
"537 156 OFFCURVE",
"515 237 QCURVE SMOOTH",
"435 528 LINE",
"347 528 LINE",
"266 237 LINE SMOOTH",
"244 159 OFFCURVE",
"230 82 QCURVE",
"228 82 LINE",
"215 163 OFFCURVE",
"193 239 QCURVE SMOOTH",
"109 528 LINE",
"10 528 LINE",
"180 0 LINE"
);
}
);
width = 781;
},
{
layerId = "4E407420-3460-49BF-A41E-BF3B8360384D";
paths = (
{
closed = 1;
nodes = (
"317 0 LINE",
"375 217 LINE SMOOTH",
"393 296 OFFCURVE",
"410 380 QCURVE",
"412 380 LINE",
"427 296 OFFCURVE",
"445 217 QCURVE SMOOTH",
"501 0 LINE",
"649 0 LINE",
"814 528 LINE",
"659 528 LINE",
"602 325 LINE SMOOTH",
"584 243 OFFCURVE",
"570 159 QCURVE",
"568 159 LINE",
"552 245 OFFCURVE",
"533 327 QCURVE SMOOTH",
"477 528 LINE",
"344 528 LINE",
"290 327 LINE SMOOTH",
"272 245 OFFCURVE",
"256 160 QCURVE",
"254 160 LINE",
"240 244 OFFCURVE",
"223 325 QCURVE SMOOTH",
"167 528 LINE",
"7 528 LINE",
"171 0 LINE"
);
}
);
width = 822;
}
);
note = uni0077;
unicode = 0077;
},
{
color = 5;
glyphname = x;
lastChange = "2018-08-07 02:23:42 +0000";
layers = (
{
layerId = "F6752803-E9E3-41A6-B92A-1FAB6ACE0E29";
paths = (
{
closed = 1;
nodes = (
"124 0 LINE",
"226 152 LINE SMOOTH",
"251 189 OFFCURVE",
"274 233 QCURVE",
"276 233 LINE",
"300 189 OFFCURVE",
"325 152 QCURVE SMOOTH",
"428 0 LINE",
"536 0 LINE",
"329 281 LINE",
"504 528 LINE",
"403 528 LINE",
"320 405 LINE SMOOTH",
"304 382 OFFCURVE",
"276 331 QCURVE",
"274 331 LINE",
"249 378 OFFCURVE",
"231 405 QCURVE SMOOTH",
"151 528 LINE",
"43 528 LINE",
"222 272 LINE",
"20 0 LINE"
);
}
);
width = 556;
},
{
layerId = "4E407420-3460-49BF-A41E-BF3B8360384D";
paths = (
{
closed = 1;
nodes = (
"188 0 LINE",
"231 68 LINE SMOOTH",
"267 125 OFFCURVE",
"293 186 QCURVE",
"295 186 LINE",
"325 115 OFFCURVE",
"353 68 QCURVE SMOOTH",
"394 0 LINE",
"576 0 LINE",
"389 278 LINE",
"552 528 LINE",
"386 528 LINE",
"357 478 LINE SMOOTH",
"325 417 OFFCURVE",
"303 365 QCURVE",
"301 365 LINE",
"275 422 OFFCURVE",
"245 478 QCURVE SMOOTH",
"214 528 LINE",
"35 528 LINE",
"204 275 LINE",
"17 0 LINE"
);
}
);
width = 593;
}
);
note = uni0078;
unicode = 0078;
},
{
color = 5;
glyphname = y;
lastChange = "2018-08-07 02:26:41 +0000";
layers = (
{
layerId = "F6752803-E9E3-41A6-B92A-1FAB6ACE0E29";
paths = (
{
closed = 1;
nodes = (
"231 -188 OFFCURVE",
"286 -49 QCURVE SMOOTH",
"514 528 LINE",
"417 528 LINE",
"310 239 LINE SMOOTH",
"271 118 OFFCURVE",
"264 94 QCURVE",
"262 94 LINE",
"255 118 OFFCURVE",
"217 239 QCURVE SMOOTH",
"106 528 LINE",
"5 528 LINE",
"210 27 LINE SMOOTH",
"225 -9 OFFCURVE",
"191 -41 QCURVE",
"181 -118 OFFCURVE",
"111 -106 QCURVE SMOOTH",
"51 -96 LINE",
"51 -176 LINE",
"130 -187 LINE"
);
}
);
width = 519;
},
{
layerId = "4E407420-3460-49BF-A41E-BF3B8360384D";
paths = (
{
closed = 1;
nodes = (
"305 -176 OFFCURVE",
"362 -13 QCURVE SMOOTH",
"552 528 LINE",
"396 528 LINE",
"331 328 LINE SMOOTH",
"322 301 OFFCURVE",
"284 143 QCURVE",
"282 143 LINE",
"252 286 OFFCURVE",
"238 328 QCURVE SMOOTH",
"170 528 LINE",
"5 528 LINE",
"170 107 LINE SMOOTH",
"190 56 OFFCURVE",
"198 0 QCURVE",
"197 -55 OFFCURVE",
"122 -54 QCURVE SMOOTH",
"63 -53 LINE",
"63 -176 LINE",
"168 -178 LINE"
);
}
);
width = 557;
}
);
note = uni0079;
unicode = 0079;
},
{
color = 5;
glyphname = z;
lastChange = "2018-08-07 02:28:06 +0000";
layers = (
{
layerId = "F6752803-E9E3-41A6-B92A-1FAB6ACE0E29";
paths = (
{
closed = 1;
nodes = (
"477 0 LINE",
"477 82 LINE",
"260 82 LINE SMOOTH",
"203 82 OFFCURVE",
"153 79 QCURVE",
"153 82 LINE",
"198 130 OFFCURVE",
"221 160 QCURVE SMOOTH",
"465 470 LINE",
"465 528 LINE",
"62 528 LINE",
"62 449 LINE",
"247 449 LINE SMOOTH",
"285 449 OFFCURVE",
"348 452 QCURVE",
"348 449 LINE",
"317 418 OFFCURVE",
"284 376 QCURVE SMOOTH",
"44 72 LINE",
"44 0 LINE"
);
}
);
width = 512;
},
{
layerId = "4E407420-3460-49BF-A41E-BF3B8360384D";
paths = (
{
closed = 1;
nodes = (
"505 0 LINE",
"505 123 LINE",
"331 123 LINE SMOOTH",
"313 123 OFFCURVE",
"207 116 QCURVE",
"207 119 LINE",
"294 196 OFFCURVE",
"308 211 QCURVE SMOOTH",
"491 415 LINE",
"491 528 LINE",
"59 528 LINE",
"59 406 LINE",
"200 406 LINE SMOOTH",
"217 406 OFFCURVE",
"315 414 QCURVE",
"315 411 LINE",
"238 341 OFFCURVE",
"226 328 QCURVE SMOOTH",
"36 117 LINE",
"36 0 LINE"
);
}
);
width = 538;
}
);
note = uni007A;
unicode = 007A;
},
